<svg width="1134" height="218" viewBox="0 0 1134 218" fill="none" xmlns="http://www.w3.org/2000/svg">
<g clip-path="url(#clip0_971_38)">
<path d="M1081.41 69.6885C1097.41 69.6885 1109.87 74.5989 1118.78 84.4197C1127.87 94.0587 1132.42 109.154 1132.42 129.705H1036.12L1035.85 124.522H1106.23C1106.59 115.61 1105.87 107.426 1104.05 99.9693C1102.23 92.3309 1099.32 86.2384 1095.32 81.6917C1091.5 77.1451 1086.5 74.8717 1080.32 74.8717C1071.95 74.8717 1064.49 79.0547 1057.95 87.4205C1051.58 95.7864 1047.76 109.063 1046.49 127.25L1047.31 128.341C1046.94 131.069 1046.67 134.07 1046.49 137.343C1046.31 140.617 1046.22 143.89 1046.22 147.164C1046.22 159.531 1048.22 170.17 1052.22 179.082C1056.22 187.993 1061.4 194.813 1067.77 199.542C1074.31 204.088 1081.04 206.362 1087.95 206.362C1093.41 206.362 1098.59 205.543 1103.5 203.906C1108.41 202.088 1112.96 199.178 1117.14 195.177C1121.33 191.176 1124.96 185.811 1128.06 179.082L1133.51 181.264C1131.51 187.266 1128.24 193.085 1123.69 198.723C1119.14 204.361 1113.41 208.999 1106.5 212.636C1099.59 216.091 1091.59 217.819 1082.5 217.819C1069.4 217.819 1058.13 214.818 1048.67 208.817C1039.4 202.815 1032.21 194.54 1027.12 183.992C1022.21 173.262 1019.75 160.986 1019.75 147.164C1019.75 131.16 1022.3 117.429 1027.39 105.971C1032.48 94.3315 1039.67 85.42 1048.94 79.2365C1058.22 72.8712 1069.04 69.6885 1081.41 69.6885Z" fill="white"/>
<path d="M917.986 215.91C910.53 215.91 904.073 214.546 898.617 211.818C893.161 208.908 888.979 204.907 886.069 199.814C883.341 194.722 881.977 188.811 881.977 182.082C881.977 174.08 883.795 167.533 887.433 162.441C891.252 157.348 896.071 153.256 901.891 150.165C907.711 147.073 913.803 144.527 920.169 142.526C926.716 140.344 932.899 138.343 938.719 136.525C944.539 134.524 949.267 132.251 952.905 129.705C956.724 127.159 958.633 123.794 958.633 119.611V102.698C958.633 95.0589 957.451 89.2392 955.087 85.2381C952.905 81.2371 949.904 78.6 946.085 77.3269C942.265 75.872 937.992 75.1445 933.263 75.1445C928.716 75.1445 923.806 75.7811 918.532 77.0541C913.44 78.3272 909.348 80.9643 906.256 84.9653C909.711 85.6928 912.712 87.5115 915.258 90.4213C917.804 93.3312 919.077 97.0595 919.077 101.606C919.077 106.153 917.623 109.79 914.713 112.518C911.803 115.064 908.075 116.338 903.528 116.338C898.254 116.338 894.344 114.701 891.797 111.427C889.433 107.972 888.251 104.152 888.251 99.9693C888.251 95.2408 889.433 91.4216 891.797 88.5117C894.162 85.6019 897.163 82.8739 900.8 80.3277C904.983 77.4179 910.348 74.9627 916.895 72.9621C923.624 70.7797 931.172 69.6885 939.537 69.6885C946.994 69.6885 953.359 70.5979 958.633 72.4165C963.908 74.0533 968.272 76.5085 971.728 79.7821C976.456 84.1469 979.548 89.512 981.003 95.8773C982.458 102.061 983.185 109.518 983.185 118.247V194.086C983.185 198.632 983.822 201.906 985.095 203.906C986.55 205.907 988.732 206.907 991.642 206.907C993.643 206.907 995.552 206.452 997.371 205.543C999.19 204.634 1001.37 203.179 1003.92 201.178L1006.92 205.816C1003.1 208.726 999.463 211.181 996.007 213.182C992.552 215 987.914 215.91 982.094 215.91C976.82 215.91 972.455 215 969 213.182C965.544 211.363 962.907 208.726 961.089 205.27C959.452 201.633 958.633 197.086 958.633 191.63C953.723 199.814 947.812 205.907 940.901 209.908C934.172 213.909 926.534 215.91 917.986 215.91ZM927.807 204.998C933.809 204.998 939.356 203.27 944.448 199.814C949.722 196.359 954.451 191.176 958.633 184.265V130.796C956.451 133.888 953.268 136.525 949.085 138.707C944.903 140.708 940.356 142.799 935.445 144.982C930.535 146.982 925.807 149.437 921.26 152.347C916.895 155.075 913.258 158.712 910.348 163.259C907.438 167.806 905.983 173.716 905.983 180.991C905.983 188.266 907.893 194.086 911.712 198.45C915.713 202.815 921.078 204.998 927.807 204.998Z" fill="white"/>
<path d="M836.978 182.901C841.706 182.901 845.798 184.629 849.254 188.084C852.709 191.54 854.437 195.632 854.437 200.36C854.437 205.089 852.709 209.181 849.254 212.636C845.798 216.092 841.706 217.819 836.978 217.819C832.249 217.819 828.157 216.092 824.702 212.636C821.246 209.181 819.518 205.089 819.518 200.36C819.518 195.632 821.246 191.54 824.702 188.084C828.157 184.629 832.249 182.901 836.978 182.901Z" fill="white"/>
<path d="M776.128 0.125V184.265C776.128 192.449 777.583 198.541 780.493 202.542C783.585 206.362 789.041 208.271 796.861 208.271V214C791.223 213.454 785.585 213.182 779.947 213.182C774.673 213.182 769.581 213.454 764.671 214C759.942 214.546 755.577 215.546 751.576 217.001V32.861C751.576 24.677 750.121 18.6754 747.211 14.8562C744.301 10.8551 738.846 8.85459 730.843 8.85459V3.12579C736.663 3.67139 742.301 3.94419 747.757 3.94419C753.031 3.94419 758.032 3.67139 762.761 3.12579C767.671 2.39833 772.127 1.39807 776.128 0.125ZM718.84 69.689C726.842 69.689 734.299 71.5986 741.21 75.4178C748.303 79.237 753.031 85.7842 755.395 95.0594L751.849 97.7874C749.303 90.149 745.302 84.602 739.846 81.1466C734.572 77.6911 728.297 75.9634 721.023 75.9634C710.292 75.9634 701.29 81.5103 694.015 92.6042C686.923 103.698 683.467 120.793 683.649 143.89C683.649 158.622 685.013 170.898 687.741 180.718C690.651 190.357 694.834 197.632 700.29 202.542C705.928 207.271 712.748 209.635 720.75 209.635C728.388 209.635 735.299 206.362 741.483 199.814C747.666 193.267 751.394 183.628 752.667 170.898L755.941 174.717C754.486 188.539 750.03 199.178 742.574 206.634C735.299 214.091 725.387 217.819 712.839 217.819C701.563 217.819 691.651 215.091 683.103 209.635C674.737 204.179 668.281 195.995 663.735 185.083C659.37 174.171 657.187 160.44 657.187 143.89C657.187 127.34 660.006 113.61 665.644 102.698C671.464 91.6039 679.011 83.329 688.287 77.873C697.744 72.417 707.928 69.689 718.84 69.689Z" fill="white"/>
<path d="M554.875 215.91C547.418 215.91 540.962 214.546 535.506 211.818C530.05 208.908 525.867 204.907 522.957 199.814C520.229 194.722 518.865 188.811 518.865 182.082C518.865 174.08 520.684 167.533 524.321 162.441C528.14 157.348 532.96 153.256 538.779 150.165C544.599 147.073 550.692 144.527 557.057 142.526C563.604 140.344 569.788 138.343 575.607 136.525C581.427 134.524 586.156 132.251 589.793 129.705C593.612 127.159 595.522 123.794 595.522 119.611V102.698C595.522 95.0589 594.34 89.2392 591.975 85.2381C589.793 81.2371 586.792 78.6 582.973 77.3269C579.154 75.872 574.88 75.1445 570.151 75.1445C565.605 75.1445 560.694 75.7811 555.42 77.0541C550.328 78.3272 546.236 80.9643 543.144 84.9653C546.6 85.6928 549.6 87.5115 552.147 90.4213C554.693 93.3312 555.966 97.0595 555.966 101.606C555.966 106.153 554.511 109.79 551.601 112.518C548.691 115.064 544.963 116.338 540.416 116.338C535.142 116.338 531.232 114.701 528.686 111.427C526.322 107.972 525.139 104.152 525.139 99.9693C525.139 95.2408 526.322 91.4216 528.686 88.5117C531.05 85.6019 534.051 82.8739 537.688 80.3277C541.871 77.4179 547.236 74.9627 553.783 72.9621C560.512 70.7797 568.06 69.6885 576.426 69.6885C583.882 69.6885 590.248 70.5979 595.522 72.4165C600.796 74.0533 605.161 76.5085 608.616 79.7821C613.345 84.1469 616.436 89.512 617.891 95.8773C619.346 102.061 620.074 109.518 620.074 118.247V194.086C620.074 198.632 620.71 201.906 621.983 203.906C623.438 205.907 625.621 206.907 628.531 206.907C630.531 206.907 632.441 206.452 634.259 205.543C636.078 204.634 638.26 203.179 640.807 201.178L643.807 205.816C639.988 208.726 636.351 211.181 632.895 213.182C629.44 215 624.802 215.91 618.983 215.91C613.708 215.91 609.344 215 605.888 213.182C602.433 211.363 599.796 208.726 597.977 205.27C596.34 201.633 595.522 197.086 595.522 191.63C590.611 199.814 584.701 205.907 577.79 209.908C571.061 213.909 563.422 215.91 554.875 215.91ZM564.695 204.998C570.697 204.998 576.244 203.27 581.336 199.814C586.61 196.359 591.339 191.176 595.522 184.265V130.796C593.339 133.888 590.157 136.525 585.974 138.707C581.791 140.708 577.244 142.799 572.334 144.982C567.423 146.982 562.695 149.437 558.148 152.347C553.783 155.075 550.146 158.712 547.236 163.259C544.326 167.806 542.871 173.716 542.871 180.991C542.871 188.266 544.781 194.086 548.6 198.45C552.601 202.815 557.966 204.998 564.695 204.998Z" fill="white"/>
<path d="M467.314 5.30811C472.043 5.30811 476.135 7.03583 479.59 10.4913C483.046 13.9468 484.773 18.0388 484.773 22.7673C484.773 27.4958 483.046 31.5878 479.59 35.0433C476.135 38.4988 472.043 40.2265 467.314 40.2265C462.586 40.2265 458.494 38.4988 455.038 35.0433C451.583 31.5878 449.855 27.4958 449.855 22.7673C449.855 18.0388 451.583 13.9468 455.038 10.4913C458.494 7.03583 462.586 5.30811 467.314 5.30811ZM481.5 70.5073V188.63C481.5 196.268 483.046 201.451 486.137 204.179C489.411 206.907 494.776 208.271 502.233 208.271V214C499.141 213.818 494.412 213.636 488.047 213.455C481.864 213.091 475.589 212.909 469.224 212.909C463.04 212.909 456.766 213.091 450.401 213.455C444.035 213.636 439.307 213.818 436.215 214V208.271C443.672 208.271 448.946 206.907 452.038 204.179C455.311 201.451 456.948 196.268 456.948 188.63V103.243C456.948 95.0593 455.493 89.0577 452.583 85.2385C449.673 81.2374 444.217 79.2369 436.215 79.2369V73.5081C442.035 74.0537 447.673 74.3265 453.129 74.3265C458.403 74.3265 463.404 74.0537 468.133 73.5081C473.043 72.7806 477.499 71.7804 481.5 70.5073Z" fill="white"/>
<path d="M284.076 69.6885C290.441 69.6885 295.988 70.5979 300.717 72.4165C305.445 74.2352 309.355 76.7813 312.447 80.0549C315.903 83.6923 318.267 88.4208 319.54 94.2405C320.813 100.06 321.449 107.244 321.449 115.792V188.63C321.449 196.268 322.995 201.451 326.087 204.179C329.361 206.907 334.726 208.271 342.182 208.271V214C339.09 213.818 334.362 213.636 327.997 213.454C321.631 213.091 315.448 212.909 309.446 212.909C303.445 212.909 297.534 213.091 291.714 213.454C286.076 213.636 281.802 213.818 278.893 214V208.271C285.44 208.271 290.077 206.907 292.805 204.179C295.533 201.451 296.897 196.268 296.897 188.63V109.79C296.897 104.152 296.534 98.9691 295.806 94.2405C295.079 89.512 293.26 85.6928 290.35 82.7829C287.44 79.8731 282.712 78.4181 276.165 78.4181C269.072 78.4181 262.706 80.6005 257.069 84.9653C251.613 89.3301 247.248 95.3317 243.974 102.97C240.882 110.427 239.337 118.793 239.337 128.068V188.63C239.337 196.268 240.701 201.451 243.429 204.179C246.157 206.907 250.794 208.271 257.341 208.271V214C254.432 213.818 250.067 213.636 244.247 213.454C238.609 213.091 232.789 212.909 226.788 212.909C220.786 212.909 214.603 213.091 208.237 213.454C201.872 213.636 197.144 213.818 194.052 214V208.271C201.508 208.271 206.782 206.907 209.874 204.179C213.148 201.451 214.785 196.268 214.785 188.63V103.243C214.785 95.0589 213.33 89.0573 210.42 85.2381C207.51 81.2371 202.054 79.2365 194.052 79.2365V73.5077C199.872 74.0533 205.509 74.3261 210.965 74.3261C216.24 74.3261 221.241 74.0533 225.969 73.5077C230.88 72.7803 235.336 71.78 239.337 70.5069V102.698C244.065 90.876 250.521 82.4192 258.705 77.3269C266.889 72.2347 275.346 69.6885 284.076 69.6885ZM366.189 69.6885C372.554 69.6885 378.101 70.5979 382.829 72.4165C387.558 74.2352 391.468 76.7813 394.56 80.0549C398.015 83.6923 400.38 88.4208 401.653 94.2405C402.926 100.06 403.562 107.244 403.562 115.792V188.63C403.562 196.268 405.108 201.451 408.2 204.179C411.473 206.907 416.838 208.271 424.295 208.271V214C421.203 213.818 416.475 213.636 410.109 213.454C403.744 213.091 397.561 212.909 391.559 212.909C385.557 212.909 379.647 213.091 373.827 213.454C368.189 213.636 363.915 213.818 361.005 214V208.271C367.553 208.271 372.19 206.907 374.918 204.179C377.646 201.451 379.01 196.268 379.01 188.63V109.79C379.01 104.152 378.646 98.9691 377.919 94.2405C377.192 89.512 375.373 85.6928 372.463 82.7829C369.553 79.8731 364.825 78.4181 358.277 78.4181C351.185 78.4181 344.819 80.6005 339.181 84.9653C333.725 89.3301 329.361 95.2408 326.087 102.698C322.995 110.154 321.449 118.52 321.449 127.795L320.631 102.425C325.541 89.8757 332.18 81.328 340.545 76.7813C348.911 72.0528 357.459 69.6885 366.189 69.6885Z" fill="white"/>
<path d="M74.932 20.8579C107.486 20.8579 131.674 29.0419 147.497 45.4099C163.319 61.596 171.23 84.8749 171.23 115.246C171.23 135.07 167.32 152.438 159.5 167.351C151.862 182.082 140.677 193.54 125.946 201.724C111.214 209.908 93.3915 214 72.4768 214C69.7488 214 66.1115 213.909 61.5648 213.727C57.0181 213.545 52.2896 213.454 47.3792 213.454C42.6507 213.273 38.2859 213.182 34.2848 213.182C27.9195 213.182 21.6451 213.273 15.4616 213.454C9.27815 213.454 4.27682 213.636 0.457611 214V208.544C6.64108 208.18 11.2787 207.453 14.3704 206.362C17.644 205.27 19.8264 203.088 20.9176 199.814C22.0088 196.541 22.5544 191.63 22.5544 185.083V49.7747C22.5544 43.0456 22.0088 38.1352 20.9176 35.0435C19.8264 31.7699 17.644 29.5875 14.3704 28.4963C11.2787 27.2232 6.64108 26.4957 0.457611 26.3139V20.8579C4.27682 21.0397 9.27815 21.3125 15.4616 21.6763C21.6451 21.8581 27.7376 21.8581 33.7392 21.6763C40.1045 21.4944 47.2883 21.3125 55.2904 21.1307C63.2925 20.9488 69.8397 20.8579 74.932 20.8579ZM68.112 25.7683C59.7461 25.7683 54.2901 27.3141 51.744 30.4059C49.1979 33.4976 47.9248 39.772 47.9248 49.2291V185.629C47.9248 195.086 49.1979 201.36 51.744 204.452C54.472 207.544 60.0189 209.09 68.3848 209.09C88.2083 209.09 103.576 205.543 114.488 198.45C125.4 191.176 133.038 180.628 137.403 166.806C141.768 152.984 143.95 136.161 143.95 116.338C143.95 95.9688 141.495 79.1461 136.585 65.8699C131.856 52.4117 123.945 42.4091 112.851 35.8619C101.939 29.1328 87.0261 25.7683 68.112 25.7683Z" fill="#DB0E11"/>
<path d="M17.7594 214.212V22H83.6949C140.706 22 174.406 57.5652 174.406 117.906V118.173C174.406 178.647 140.839 214.212 83.6949 214.212H17.7594Z" fill="#DB0E11"/>
<path d="M103.25 117.796L17 167.593V68L103.25 117.796Z" fill="white"/>
</g>
<defs>
<clipPath id="clip0_971_38">
<rect width="1134" height="218" fill="white"/>
</clipPath>
</defs>
</svg>
