<svg width="295" height="269" viewBox="0 0 295 269" fill="none" xmlns="http://www.w3.org/2000/svg">
<path d="M12.0924 198.994L0.546387 210.538V223.678H283.208L294.752 212.137V198.994H12.0924Z" fill="#D02C2F"/>
<path d="M62.1369 128.181C62.1369 136.84 56.0879 142.886 47.4289 142.886C40.2009 142.886 36.1489 141.382 32.7189 137.371V117.752C32.7189 109.088 38.7699 103.041 47.4289 103.041C56.0879 103.041 62.1369 109.088 62.1369 117.752V128.181ZM47.4289 90.1084C31.5259 90.1084 19.5339 101.991 19.5339 117.752V134.359C8.28387 136.386 0.546875 145.78 0.546875 157.661V182.981C0.546875 184.891 1.64388 185.982 3.55387 185.982H10.6139C12.5299 185.982 13.6189 184.891 13.6189 182.981L13.6049 157.661C13.6049 151.419 17.3959 147.336 23.5549 146.86C29.1529 152.727 37.5189 155.822 47.8019 155.822C64.3629 155.822 75.0669 144.822 75.0669 127.8V117.752C75.0669 101.991 63.1849 90.1084 47.4289 90.1084Z" fill="white"/>
<path d="M225.049 141.102H232.111C234.021 141.102 235.115 140.007 235.115 138.101V94.0153C235.115 92.1053 234.021 91.0103 232.111 91.0103H225.049C223.138 91.0103 222.041 92.1053 222.041 94.0153V138.101C222.041 140.007 223.138 141.102 225.049 141.102Z" fill="white"/>
<path d="M198.446 149.03L180.499 148.985C166.217 148.985 159.85 142.732 159.85 128.719C159.85 114.185 167.325 105.85 180.355 105.85C184.833 105.85 189.801 106.886 194.729 108.85C195.209 109.043 195.758 108.982 196.183 108.693C196.612 108.399 196.873 107.914 196.873 107.399V98.205C196.873 97.561 196.469 96.981 195.873 96.749C190.252 94.568 184.259 93.416 178.543 93.416C162.684 93.416 145.744 102.618 145.744 128.461C145.744 137.02 147.951 143.9 152.317 148.985H136.475C136.48 148.995 136.48 149.006 136.488 149.017C129.446 148.527 128.645 142.548 128.645 139.904L128.622 84.791C128.622 82.881 127.527 81.783 125.62 81.783H118.555C116.645 81.783 115.547 82.881 115.547 84.791L115.558 139.859C115.558 143.281 114.444 149.017 106.913 149.017L78.7824 149.03C76.8694 149.03 75.7744 150.126 75.7744 152.035V159.098C75.7744 161.009 76.8694 162.103 78.7824 162.103H106.784C113.093 162.103 118.207 159.983 122.013 155.794C125.915 159.88 130.826 162.103 136.019 162.103H198.446C200.353 162.103 201.451 161.009 201.451 159.098V152.035C201.451 150.126 200.353 149.03 198.446 149.03Z" fill="white"/>
<path d="M91.3513 141.102H98.4143C100.327 141.102 101.419 140.007 101.419 138.101V94.0153C101.419 92.1053 100.327 91.0103 98.4143 91.0103H91.3513C89.4443 91.0103 88.3433 92.1053 88.3433 94.0153V138.101C88.3433 140.007 89.4443 141.102 91.3513 141.102Z" fill="white"/>
<path d="M294.752 84.7908C294.752 82.8808 293.659 81.7828 291.746 81.7828H291.71H284.685H284.65C282.737 81.7828 281.64 82.8808 281.64 84.7908L281.65 139.859C281.65 143.281 280.531 149.018 273.006 149.018H271.001C263.479 149.018 262.358 143.281 262.358 139.859L262.319 84.7908C262.319 82.8808 261.228 81.7828 259.314 81.7828H252.252C250.342 81.7828 249.244 82.8808 249.244 84.7908L249.256 139.859C249.256 143.281 248.138 149.018 240.61 149.018L212.482 149.03C210.567 149.03 209.475 150.126 209.475 152.035V159.099C209.475 161.009 210.567 162.104 212.482 162.104H240.481C246.791 162.104 251.904 159.983 255.713 155.794C259.611 159.88 264.523 162.104 269.716 162.104H275.826C284.214 162.104 294.752 156.895 294.752 143.058V84.7908Z" fill="white"/>
<path d="M236.946 180.85H236.547H231.231C230.223 180.85 229.419 180.527 228.82 179.883C228.209 179.239 227.913 178.495 227.913 177.646C227.913 176.802 228.209 176.052 228.82 175.414C229.419 174.77 230.223 174.445 231.231 174.445H234.819C235.158 174.445 235.424 174.172 235.424 173.839V169.975C235.424 169.639 235.158 169.37 234.819 169.37H231.231C228.977 169.37 227.006 170.154 225.313 171.728C223.62 173.296 222.779 175.271 222.779 177.646C222.779 178.853 222.975 179.922 223.382 180.85H219.155H219.068C218.729 180.85 218.458 181.121 218.458 181.462V185.372C218.458 185.713 218.729 185.982 219.068 185.982H236.946C237.286 185.982 237.56 185.713 237.56 185.372V181.462C237.56 181.121 237.286 180.85 236.946 180.85Z" fill="white"/>
<path d="M31.2476 216.132C32.4186 216.132 33.3486 215.781 34.0426 215.079C34.7346 214.373 35.0816 213.295 35.0816 211.824C35.0816 210.394 34.7626 209.361 34.1326 208.733C33.4966 208.1 32.5946 207.786 31.4216 207.786H28.4476V216.132H31.2476ZM34.9496 206.023C35.9276 206.524 36.6896 207.266 37.2356 208.249C37.7756 209.232 38.0566 210.419 38.0566 211.824C38.0566 213.248 37.7506 214.474 37.1646 215.499C36.5736 216.528 35.7786 217.312 34.7626 217.843C33.7546 218.381 32.6316 218.647 31.3956 218.647H25.4956V205.272H31.5886C32.8576 205.272 33.9806 205.518 34.9496 206.023Z" fill="white"/>
<path d="M63.0775 216.317C62.5845 217.183 61.8845 217.836 60.9885 218.284C60.0895 218.726 59.0445 218.95 57.8465 218.95C56.6505 218.95 55.6195 218.726 54.7655 218.284C53.9035 217.836 53.2475 217.183 52.7945 216.317C52.3315 215.446 52.1055 214.394 52.1055 213.153V205.272H55.0575V213.046C55.0575 214.175 55.2865 215.005 55.7455 215.528C56.2075 216.06 56.9085 216.32 57.8545 216.32C59.8655 216.32 60.8735 215.228 60.8735 213.046V205.272H63.8225V213.153C63.8225 214.394 63.5765 215.446 63.0775 216.317Z" fill="white"/>
<path d="M84.0424 216.337C84.7084 216.337 85.2484 216.183 85.6714 215.872C86.0944 215.562 86.3014 215.105 86.3014 214.494C86.3014 213.882 86.0864 213.444 85.6444 213.19C85.2064 212.929 84.5684 212.806 83.7334 212.806H81.4354V216.337H84.0424ZM83.4004 210.773C84.1824 210.773 84.7954 210.638 85.2374 210.369C85.6864 210.101 85.9004 209.687 85.9004 209.112C85.9004 208.535 85.7034 208.138 85.3154 207.913C84.9294 207.692 84.4004 207.58 83.7394 207.58H81.4354V210.773H83.4004ZM87.5564 206.068C88.4074 206.6 88.8314 207.435 88.8314 208.571C88.8314 209.361 88.5954 210.017 88.1224 210.518C87.6464 211.022 86.9744 211.395 86.0834 211.629C87.1534 211.806 87.9514 212.131 88.4824 212.609C89.0074 213.092 89.2734 213.78 89.2734 214.686C89.2734 215.495 89.0554 216.194 88.6294 216.793C88.1954 217.393 87.6014 217.856 86.8544 218.172C86.1004 218.488 85.2574 218.648 84.3214 218.648H78.5054V205.273H84.0204C85.5234 205.273 86.6994 205.533 87.5564 206.068Z" fill="white"/>
<path d="M110.543 212.935L109.373 209.395L108.94 207.826H108.921L108.464 209.395L107.294 212.935H110.543ZM112.441 218.647L111.28 215.136H106.564L105.401 218.647H102.332L107.274 205.272H110.602L115.581 218.647H112.441Z" fill="white"/>
<path d="M132.225 218.647H129.27V205.272H132.225V218.647Z" fill="white"/>
<path d="M170.985 218.647V208.756H170.967L170.484 210.241L167.632 218.284H165.003L162.236 210.288L161.777 208.801H161.757V218.647H158.923V205.272H163.02L165.877 213.424L166.322 214.76H166.347L166.796 213.424L169.767 205.272H173.824V218.647H170.985Z" fill="white"/>
<path d="M198.382 207.749H191.636V210.58H197.715V212.906H191.636V216.167H198.8V218.647H188.684V205.272H198.382V207.749Z" fill="white"/>
<path d="M218.856 216.132C220.026 216.132 220.956 215.781 221.65 215.079C222.342 214.373 222.687 213.295 222.687 211.824C222.687 210.394 222.37 209.361 221.74 208.733C221.107 208.1 220.206 207.786 219.033 207.786H216.055V216.132H218.856ZM222.561 206.023C223.533 206.524 224.299 207.266 224.84 208.249C225.386 209.232 225.659 210.419 225.659 211.824C225.659 213.248 225.364 214.474 224.773 215.499C224.182 216.528 223.387 217.312 222.374 217.843C221.363 218.381 220.243 218.647 219.007 218.647H213.104V205.272H219.189C220.462 205.272 221.588 205.518 222.561 206.023Z" fill="white"/>
<path d="M242.842 218.647H239.891V205.272H242.842V218.647Z" fill="white"/>
<path d="M264.778 212.935L263.604 209.395L263.17 207.826H263.151L262.7 209.395L261.529 212.935H264.778ZM266.679 218.647L265.511 215.136H260.796L259.631 218.647H256.564L261.512 205.272H264.837L269.813 218.647H266.679Z" fill="white"/>
<path d="M199.575 71.4636C199.575 76.8226 195.222 81.1926 189.848 81.1926C184.498 81.1926 180.108 76.8226 180.108 71.4636C180.108 66.1006 184.498 61.7656 189.848 61.7656C195.222 61.7656 199.575 66.1006 199.575 71.4636Z" fill="#D02C2F"/>
<path d="M284.892 10.5115C278.403 4.01751 270.457 0.726501 261.292 0.726501H234.517C232.159 0.726501 230.694 2.1885 230.694 4.5405V11.6035C230.694 13.9615 232.159 15.4285 234.517 15.4285H261.292C266.427 15.4285 270.875 17.2715 274.504 20.9095C278.145 24.5475 279.988 28.9945 279.988 34.1185V36.2115C279.988 41.3385 278.145 45.7805 274.504 49.4215C270.872 53.0615 266.425 54.9045 261.292 54.9045H234.517C232.159 54.9045 230.694 56.3655 230.694 58.7235V65.7785C230.694 68.1395 232.159 69.6065 234.517 69.6065H261.292C270.457 69.6065 278.403 66.3135 284.892 59.8135C291.394 53.3225 294.69 45.3805 294.69 36.2115V34.1185C294.69 24.9505 291.394 17.0055 284.892 10.5115Z" fill="white"/>
<path d="M220.525 0.726326H213.46C211.101 0.726326 209.639 2.18833 209.639 4.54633V29.6913C209.639 34.8303 207.794 39.2773 204.156 42.9073C200.521 46.5503 196.074 48.3933 190.947 48.3933H188.86C183.732 48.3933 179.285 46.5473 175.644 42.9073C172.004 39.2773 170.159 34.8303 170.159 29.6913V4.54633C170.159 2.18833 168.697 0.726326 166.344 0.726326H33.9164C24.7504 0.726326 16.8134 4.01733 10.3174 10.5113C3.82043 17.0023 0.524414 24.9483 0.524414 34.1193V36.2113C0.524414 45.3823 3.82043 53.3253 10.3174 59.8133C16.8114 66.3133 24.7504 69.6063 33.9164 69.6063H88.7494C91.1074 69.6063 92.5684 68.1393 92.5684 65.7783V58.7243C92.5684 56.3663 91.1074 54.9043 88.7494 54.9043H33.9164C28.7864 54.9043 24.3394 53.0613 20.7074 49.4213C17.0644 45.7803 15.2204 41.3383 15.2204 36.2113V34.1193C15.2204 28.9943 17.0644 24.5473 20.7074 20.9093C24.3394 17.2713 28.7864 15.4293 33.9164 15.4293H155.465V29.6913C155.465 38.8633 158.755 46.8083 165.252 53.2933C169.27 57.3153 173.897 60.1413 179 61.6813L179.467 61.8213L179.812 61.4773C182.497 58.7973 186.062 57.3243 189.854 57.3243C193.661 57.3243 197.234 58.8083 199.916 61.5023L200.261 61.8463L200.725 61.7063C205.856 60.1753 210.513 57.3413 214.557 53.2933C221.051 46.7993 224.344 38.8583 224.344 29.6913V4.54633C224.344 2.18833 222.88 0.726326 220.525 0.726326Z" fill="white"/>
<path d="M135.021 52.4035C129.667 52.4035 125.278 56.7365 125.278 62.1015C125.278 67.4615 129.667 71.8305 135.021 71.8305C140.392 71.8305 144.744 67.4615 144.744 62.1015C144.744 56.7365 140.392 52.4035 135.021 52.4035Z" fill="white"/>
<path d="M110.602 52.4035C105.252 52.4035 100.859 56.7365 100.859 62.1015C100.859 67.4615 105.252 71.8305 110.602 71.8305C115.973 71.8305 120.331 67.4615 120.331 62.1015C120.331 56.7365 115.973 52.4035 110.602 52.4035Z" fill="white"/>
<path d="M10.5133 258.565H10.4833L8.66134 251.23H6.47234L4.62434 258.475H4.59334L2.90934 251.23H0.569336L3.38334 261.875H5.75534L7.52834 254.627H7.56134L9.36234 261.875H11.6893L14.5543 251.23H12.2553L10.5133 258.565Z" fill="white"/>
<path d="M22.0643 254.829C21.8573 254.555 21.5713 254.346 21.2083 254.191C20.8443 254.037 20.3813 253.956 19.8153 253.956C19.4183 253.956 19.0063 254.062 18.5923 254.269C18.1723 254.482 17.8313 254.804 17.5643 255.239H17.5173V251.23H15.4023V261.875H17.5173V257.832C17.5173 257.05 17.6483 256.484 17.9063 256.141C18.1643 255.799 18.5813 255.628 19.1613 255.628C19.6533 255.628 20.0063 255.782 20.2083 256.099C20.4133 256.412 20.5133 256.885 20.5133 257.523V261.875H22.6333V257.135C22.6333 256.655 22.5883 256.225 22.5073 255.829C22.4233 255.44 22.2753 255.104 22.0643 254.829Z" fill="white"/>
<path d="M25.9911 257.193C26.0001 257.045 26.0301 256.873 26.0861 256.688C26.1391 256.499 26.2351 256.319 26.3691 256.151C26.5041 255.98 26.6831 255.839 26.9071 255.722C27.1281 255.613 27.4081 255.555 27.7461 255.555C28.2621 255.555 28.6521 255.692 28.9041 255.971C29.1561 256.247 29.3351 256.655 29.4321 257.193H25.9911ZM30.7241 255.361C30.4101 254.93 30.0101 254.591 29.5221 254.339C29.0331 254.084 28.4641 253.956 27.8081 253.956C27.2201 253.956 26.6851 254.062 26.2071 254.269C25.7221 254.482 25.3081 254.765 24.9571 255.13C24.6081 255.49 24.3421 255.922 24.1571 256.417C23.9641 256.916 23.8711 257.451 23.8711 258.03C23.8711 258.628 23.9641 259.171 24.1481 259.669C24.3301 260.167 24.5941 260.592 24.9291 260.951C25.2681 261.309 25.6801 261.587 26.1671 261.786C26.6551 261.984 27.2011 262.086 27.8081 262.086C28.6821 262.086 29.4271 261.878 30.0441 261.471C30.6591 261.063 31.1161 260.405 31.4161 259.489H29.5541C29.4841 259.727 29.2951 259.955 28.9881 260.167C28.6791 260.382 28.3101 260.49 27.8811 260.49C27.2881 260.49 26.8311 260.336 26.5121 260.015C26.1931 259.708 26.0161 259.213 25.9911 258.534H31.5501C31.5891 257.938 31.5381 257.37 31.3991 256.82C31.2621 256.274 31.0371 255.787 30.7241 255.361Z" fill="white"/>
<path d="M36.5382 254.079C36.2832 254.158 36.0452 254.269 35.8292 254.415C35.6112 254.555 35.4172 254.728 35.2492 254.935C35.0792 255.138 34.9442 255.361 34.8442 255.598H34.8152V254.169H32.8022V261.875H34.9192V258.403C34.9192 258.06 34.9532 257.742 35.0262 257.44C35.0932 257.137 35.2102 256.873 35.3752 256.65C35.5382 256.427 35.7532 256.247 36.0222 256.118C36.2912 255.991 36.6192 255.927 37.0062 255.927C37.1372 255.927 37.2692 255.933 37.4122 255.947C37.5492 255.964 37.6662 255.98 37.7672 256.001V254.034C37.6212 253.984 37.4642 253.956 37.3052 253.956C37.0452 253.956 36.7892 253.997 36.5382 254.079Z" fill="white"/>
<path d="M40.078 257.193C40.089 257.045 40.119 256.873 40.176 256.688C40.228 256.499 40.324 256.319 40.458 256.151C40.592 255.98 40.771 255.839 40.993 255.722C41.217 255.613 41.5 255.555 41.839 255.555C42.354 255.555 42.738 255.692 42.993 255.971C43.248 256.247 43.424 256.655 43.525 257.193H40.078ZM44.813 255.361C44.5 254.93 44.099 254.591 43.612 254.339C43.127 254.084 42.553 253.956 41.898 253.956C41.309 253.956 40.775 254.062 40.296 254.269C39.811 254.482 39.397 254.765 39.05 255.13C38.702 255.49 38.433 255.922 38.246 256.417C38.056 256.916 37.957 257.451 37.957 258.03C37.957 258.628 38.056 259.171 38.238 259.669C38.42 260.167 38.683 260.592 39.022 260.951C39.357 261.309 39.772 261.587 40.257 261.786C40.744 261.984 41.293 262.086 41.898 262.086C42.772 262.086 43.516 261.878 44.132 261.471C44.749 261.063 45.205 260.405 45.504 259.489H43.642C43.57 259.727 43.382 259.955 43.077 260.167C42.768 260.382 42.399 260.49 41.974 260.49C41.377 260.49 40.917 260.336 40.601 260.015C40.282 259.708 40.108 259.213 40.078 258.534H45.639C45.678 257.938 45.628 257.37 45.491 256.82C45.35 256.274 45.127 255.787 44.813 255.361Z" fill="white"/>
<path d="M50.4248 253.2H53.6148V261.875H55.9568V253.2H59.1458V251.23H50.4248V253.2Z" fill="white"/>
<path d="M66.8135 254.829C66.6035 254.555 66.3145 254.346 65.9535 254.191C65.5895 254.037 65.1255 253.956 64.5625 253.956C64.1615 253.956 63.7525 254.062 63.3385 254.269C62.9185 254.482 62.5765 254.804 62.3105 255.239H62.2635V251.23H60.1455V261.875H62.2635V257.832C62.2635 257.05 62.3945 256.484 62.6495 256.141C62.9105 255.799 63.3275 255.628 63.9045 255.628C64.3995 255.628 64.7495 255.782 64.9535 256.099C65.1585 256.412 65.2595 256.885 65.2595 257.523V261.875H67.3755V257.135C67.3755 256.655 67.3345 256.225 67.2505 255.829C67.1635 255.44 67.0205 255.104 66.8135 254.829Z" fill="white"/>
<path d="M70.7313 257.193C70.7423 257.045 70.7763 256.873 70.8293 256.688C70.8853 256.499 70.9783 256.319 71.1123 256.151C71.2473 255.98 71.4263 255.839 71.6503 255.722C71.8743 255.613 72.1533 255.555 72.4923 255.555C73.0073 255.555 73.3943 255.692 73.6473 255.971C73.9013 256.247 74.0783 256.655 74.1753 257.193H70.7313ZM75.4673 255.361C75.1533 254.93 74.7523 254.591 74.2683 254.339C73.7773 254.084 73.2073 253.956 72.5513 253.956C71.9663 253.956 71.4313 254.062 70.9463 254.269C70.4683 254.482 70.0543 254.765 69.7033 255.13C69.3563 255.49 69.0873 255.922 68.8973 256.417C68.7093 256.916 68.6133 257.451 68.6133 258.03C68.6133 258.628 68.7073 259.171 68.8893 259.669C69.0763 260.167 69.3343 260.592 69.6753 260.951C70.0113 261.309 70.4233 261.587 70.9133 261.786C71.3973 261.984 71.9463 262.086 72.5513 262.086C73.4253 262.086 74.1703 261.878 74.7883 261.471C75.4023 261.063 75.8613 260.405 76.1613 259.489H74.2963C74.2263 259.727 74.0383 259.955 73.7303 260.167C73.4193 260.382 73.0523 260.49 72.6273 260.49C72.0283 260.49 71.5743 260.336 71.2543 260.015C70.9363 259.708 70.7623 259.213 70.7313 258.534H76.2923C76.3323 257.938 76.2843 257.37 76.1453 256.82C76.0043 256.274 75.7803 255.787 75.4673 255.361Z" fill="white"/>
<path d="M90.8727 258.565H90.8477L89.0277 251.23H86.8337L84.9857 258.475H84.9547L83.2717 251.23H80.9307L83.7447 261.875H86.1197L87.8927 254.627H87.9237L89.7267 261.875H92.0507L94.9157 251.23H92.6207L90.8727 258.565Z" fill="white"/>
<path d="M100.747 258.929C100.685 259.223 100.581 259.489 100.441 259.721C100.295 259.954 100.102 260.141 99.8591 260.279C99.6151 260.418 99.3161 260.49 98.9571 260.49C98.5991 260.49 98.3021 260.418 98.0611 260.279C97.8231 260.141 97.6331 259.954 97.4871 259.721C97.3441 259.489 97.2401 259.223 97.1841 258.929C97.1221 258.635 97.0951 258.338 97.0951 258.03C97.0951 257.719 97.1221 257.417 97.1841 257.119C97.2401 256.82 97.3441 256.56 97.4871 256.329C97.6331 256.1 97.8231 255.915 98.0611 255.77C98.3021 255.624 98.5991 255.555 98.9571 255.555C99.3161 255.555 99.6151 255.624 99.8591 255.77C100.102 255.915 100.295 256.1 100.441 256.329C100.581 256.56 100.685 256.82 100.747 257.119C100.805 257.417 100.837 257.719 100.837 258.03C100.837 258.338 100.805 258.635 100.747 258.929ZM101.864 255.07C101.517 254.716 101.097 254.443 100.603 254.249C100.113 254.056 99.5651 253.955 98.9571 253.955C98.3501 253.955 97.8041 254.056 97.3161 254.249C96.8291 254.443 96.4111 254.716 96.0641 255.07C95.7141 255.42 95.4491 255.851 95.2601 256.347C95.0701 256.854 94.9761 257.41 94.9761 258.03C94.9761 258.646 95.0701 259.203 95.2601 259.696C95.4491 260.195 95.7141 260.62 96.0641 260.973C96.4111 261.326 96.8291 261.601 97.3161 261.794C97.8041 261.987 98.3501 262.085 98.9571 262.085C99.5651 262.085 100.113 261.987 100.603 261.794C101.097 261.601 101.517 261.326 101.864 260.973C102.211 260.62 102.483 260.195 102.67 259.696C102.855 259.203 102.951 258.646 102.951 258.03C102.951 257.41 102.855 256.854 102.67 256.347C102.483 255.851 102.211 255.42 101.864 255.07Z" fill="white"/>
<path d="M108.059 254.079C107.805 254.158 107.569 254.269 107.351 254.415C107.132 254.555 106.939 254.728 106.771 254.935C106.6 255.138 106.468 255.361 106.368 255.598H106.34V254.169H104.324V261.875H106.44V258.403C106.44 258.06 106.477 257.742 106.547 257.44C106.614 257.137 106.732 256.873 106.897 256.65C107.062 256.427 107.275 256.247 107.546 256.118C107.812 255.991 108.141 255.927 108.529 255.927C108.659 255.927 108.793 255.933 108.933 255.947C109.07 255.964 109.188 255.98 109.288 256.001V254.034C109.143 253.984 108.986 253.956 108.826 253.956C108.566 253.956 108.311 253.997 108.059 254.079Z" fill="white"/>
<path d="M110.182 261.875H112.299V251.23H110.182V261.875Z" fill="white"/>
<path d="M119.35 258.924C119.294 259.224 119.193 259.489 119.056 259.722C118.913 259.955 118.731 260.142 118.496 260.279C118.261 260.419 117.97 260.49 117.622 260.49C117.295 260.49 117.015 260.414 116.782 260.272C116.547 260.128 116.354 259.941 116.197 259.708C116.046 259.473 115.933 259.206 115.864 258.907C115.794 258.611 115.76 258.311 115.76 258.014C115.76 257.697 115.791 257.393 115.855 257.098C115.919 256.804 116.026 256.544 116.169 256.318C116.312 256.087 116.502 255.904 116.743 255.762C116.984 255.622 117.275 255.556 117.622 255.556C117.961 255.556 118.244 255.622 118.479 255.762C118.715 255.904 118.902 256.084 119.048 256.308C119.19 256.532 119.294 256.79 119.35 257.092C119.412 257.389 119.442 257.692 119.442 257.997C119.442 258.317 119.412 258.628 119.35 258.924ZM119.367 255.108H119.336C119.098 254.729 118.773 254.444 118.361 254.25C117.947 254.057 117.513 253.956 117.057 253.956C116.491 253.956 115.993 254.069 115.563 254.292C115.139 254.516 114.783 254.814 114.499 255.183C114.217 255.549 114.004 255.972 113.859 256.459C113.713 256.936 113.64 257.441 113.64 257.955C113.64 258.493 113.713 259.009 113.859 259.504C114.004 260.005 114.217 260.442 114.499 260.825C114.783 261.209 115.142 261.512 115.572 261.741C116.006 261.972 116.514 262.086 117.101 262.086C117.597 262.086 118.051 261.987 118.456 261.8C118.865 261.612 119.193 261.31 119.442 260.89H119.471V261.875H121.484V251.231H119.367V255.108Z" fill="white"/>
<path d="M127.449 261.875H129.79V251.23H127.449V261.875Z" fill="white"/>
<path d="M137.628 257.887C137.401 257.724 137.141 257.59 136.85 257.492C136.555 257.395 136.256 257.305 135.948 257.238C135.649 257.17 135.355 257.103 135.068 257.044C134.78 256.986 134.523 256.915 134.299 256.842C134.075 256.767 133.896 256.672 133.753 256.554C133.615 256.431 133.545 256.277 133.545 256.089C133.545 255.933 133.587 255.804 133.666 255.708C133.744 255.613 133.842 255.543 133.955 255.49C134.069 255.446 134.197 255.411 134.338 255.395C134.475 255.383 134.605 255.372 134.724 255.372C135.106 255.372 135.43 255.448 135.708 255.59C135.987 255.737 136.141 256.011 136.172 256.416H138.183C138.144 255.941 138.024 255.545 137.822 255.236C137.615 254.918 137.359 254.669 137.051 254.482C136.744 254.291 136.393 254.158 136.002 254.078C135.607 253.996 135.2 253.955 134.786 253.955C134.369 253.955 133.957 253.994 133.562 254.068C133.164 254.143 132.806 254.275 132.486 254.456C132.17 254.644 131.913 254.896 131.719 255.218C131.526 255.54 131.428 255.947 131.428 256.431C131.428 256.773 131.498 257.058 131.638 257.287C131.778 257.523 131.961 257.719 132.19 257.87C132.42 258.028 132.68 258.15 132.974 258.245C133.265 258.338 133.567 258.419 133.873 258.492C134.254 258.571 134.593 258.646 134.889 258.722C135.19 258.794 135.439 258.878 135.643 258.965C135.845 259.058 136.002 259.158 136.111 259.277C136.219 259.388 136.276 259.526 136.276 259.685C136.276 259.872 136.231 260.027 136.141 260.153C136.052 260.279 135.942 260.373 135.805 260.452C135.673 260.525 135.522 260.577 135.357 260.615C135.195 260.654 135.035 260.664 134.889 260.664C134.68 260.664 134.481 260.642 134.284 260.592C134.092 260.542 133.92 260.467 133.769 260.36C133.624 260.256 133.5 260.121 133.405 259.959C133.31 259.797 133.265 259.601 133.265 259.371H131.252C131.269 259.875 131.386 260.306 131.599 260.654C131.812 261.001 132.089 261.282 132.422 261.493C132.755 261.707 133.134 261.858 133.562 261.948C133.988 262.036 134.428 262.085 134.876 262.085C135.31 262.085 135.741 262.036 136.164 261.948C136.587 261.858 136.965 261.712 137.292 261.5C137.617 261.292 137.883 261.018 138.088 260.676C138.29 260.335 138.393 259.909 138.393 259.4C138.393 259.04 138.323 258.741 138.183 258.497C138.046 258.254 137.861 258.049 137.628 257.887Z" fill="white"/>
<path d="M197.548 253.569C197.869 253.569 198.148 253.452 198.379 253.222C198.609 252.986 198.727 252.712 198.727 252.39C198.727 252.068 198.609 251.794 198.379 251.561C198.148 251.326 197.869 251.211 197.548 251.211C197.226 251.211 196.951 251.326 196.716 251.561C196.484 251.794 196.368 252.068 196.368 252.39C196.368 252.712 196.484 252.986 196.716 253.222C196.951 253.452 197.226 253.569 197.548 253.569Z" fill="white"/>
<path d="M229.134 259.724C228.941 259.962 228.684 260.079 228.361 260.079C228.137 260.079 227.873 260.027 227.566 259.914C227.252 259.803 226.952 259.668 226.667 259.517C226.753 258.839 226.942 258.324 227.233 257.965C227.519 257.604 227.873 257.417 228.294 257.406C228.65 257.428 228.927 257.562 229.123 257.806C229.324 258.049 229.422 258.374 229.422 258.787C229.422 259.172 229.327 259.484 229.134 259.724ZM254.573 259.965H232.996C232.862 259.965 232.719 259.952 232.562 259.923C232.41 259.898 232.26 259.85 232.113 259.791C231.971 259.73 231.842 259.651 231.725 259.556C231.608 259.466 231.518 259.343 231.453 259.203C231.453 259.148 231.453 259.088 231.458 259.024C231.464 258.965 231.467 258.901 231.467 258.833C231.467 258.338 231.394 257.875 231.248 257.455C231.109 257.036 230.904 256.677 230.635 256.374C230.372 256.078 230.05 255.843 229.671 255.68C229.299 255.512 228.873 255.431 228.411 255.431C228.101 255.431 227.765 255.49 227.398 255.621C227.033 255.747 226.683 255.957 226.351 256.252C226.02 256.543 225.721 256.932 225.454 257.417C225.191 257.896 225.004 258.493 224.905 259.203C224.46 259.377 224.101 259.567 223.827 259.758C223.55 259.952 223.328 260.186 223.169 260.463C223.01 260.739 222.903 261.063 222.844 261.433C222.791 261.805 222.761 262.25 222.761 262.774V268.47H224.955V262.805C224.955 262.306 225.004 261.919 225.096 261.651C225.191 261.382 225.348 261.187 225.57 261.079C226.577 261.741 227.557 262.077 228.513 262.077C229.109 262.077 229.613 261.964 230.022 261.752C230.431 261.534 230.753 261.228 230.986 260.828C231.232 261.187 231.521 261.447 231.857 261.618C232.122 261.752 232.422 261.819 232.738 261.847C232.74 261.847 232.743 261.852 232.747 261.852C232.822 261.867 232.906 261.874 232.992 261.874H235.452H256.73V250.015H254.573V259.965Z" fill="white"/>
<path d="M277.078 258.475C276.904 258.784 276.663 259.03 276.366 259.215C276.243 259.108 276.114 258.974 275.974 258.817C275.838 258.662 275.694 258.503 275.552 258.338C275.409 258.172 275.271 258.005 275.137 257.836C275.002 257.671 274.885 257.517 274.784 257.374C274.941 257.263 275.153 257.162 275.417 257.067C275.686 256.969 276.011 256.924 276.396 256.924C276.596 256.924 276.762 256.949 276.89 257.002C277.016 257.049 277.114 257.114 277.179 257.181C277.245 257.254 277.29 257.338 277.312 257.433C277.335 257.523 277.347 257.61 277.347 257.689C277.347 257.913 277.255 258.172 277.078 258.475ZM287.445 259.965H277.942C278.442 259.579 278.822 259.142 279.08 258.652C279.341 258.167 279.473 257.736 279.473 257.355C279.473 257.069 279.411 256.789 279.29 256.509C279.17 256.235 278.979 255.986 278.732 255.77C278.483 255.555 278.17 255.383 277.792 255.249C277.417 255.115 276.974 255.047 276.465 255.047C275.876 255.047 275.333 255.154 274.829 255.372C274.325 255.585 273.896 255.879 273.54 256.241C273.474 256.319 273.403 256.422 273.325 256.543C273.249 256.665 273.174 256.8 273.109 256.949C273.042 257.097 272.977 257.254 272.919 257.417C272.857 257.577 272.81 257.724 272.778 257.871L274.439 259.865C274.219 259.91 273.975 259.937 273.706 259.948C273.442 259.959 273.196 259.965 272.977 259.965H261.698C261.442 259.965 261.247 259.91 261.107 259.808C260.969 259.702 260.899 259.455 260.899 259.066V250.015H258.737V259.367C258.737 259.842 258.805 260.24 258.931 260.565C259.057 260.883 259.235 261.142 259.465 261.334C259.689 261.528 259.962 261.667 260.275 261.752C260.592 261.836 260.938 261.874 261.314 261.874H271.829H273.042C273.54 261.874 274.03 261.819 274.513 261.707C274.994 261.601 275.484 261.447 275.982 261.259C276.282 261.483 276.61 261.64 276.972 261.735C277.332 261.829 277.655 261.874 277.942 261.874H289.604V250.015H287.445V259.965Z" fill="white"/>
<path d="M291.612 261.875H293.773V250.016H291.612V261.875Z" fill="white"/>
<path d="M213.46 259.966C213.538 259.776 213.603 259.557 213.653 259.311C213.7 259.062 213.726 258.77 213.726 258.44C213.726 258.173 213.673 257.849 213.561 257.465C213.448 257.087 213.267 256.732 213.015 256.412C213.745 256.655 214.303 257.057 214.684 257.613C215.064 258.173 215.255 258.957 215.255 259.966H213.46ZM212.007 258.87C211.989 259.036 211.959 259.194 211.917 259.344C211.872 259.492 211.808 259.621 211.726 259.725C211.639 259.828 211.539 259.881 211.419 259.881C211.272 259.881 211.155 259.837 211.061 259.741C210.967 259.647 210.892 259.529 210.836 259.383C210.779 259.237 210.74 259.086 210.722 258.919C210.698 258.753 210.685 258.606 210.685 258.471C210.685 258.285 210.698 258.095 210.73 257.916C210.755 257.732 210.797 257.563 210.853 257.418C210.908 257.266 210.979 257.146 211.061 257.05C211.144 256.958 211.239 256.91 211.351 256.91C211.485 256.91 211.592 256.958 211.673 257.059C211.757 257.159 211.827 257.283 211.883 257.434C211.939 257.582 211.976 257.747 211.997 257.921C212.02 258.101 212.031 258.269 212.031 258.44C212.031 258.561 212.023 258.705 212.007 258.87ZM210.9 254.483C210.592 254.483 210.278 254.493 209.962 254.516C209.648 254.542 209.328 254.572 209.01 254.617V256.129C209.194 256.107 209.382 256.093 209.576 256.087C209.764 256.081 209.945 256.073 210.124 256.062C209.78 256.348 209.514 256.729 209.323 257.199C209.136 257.672 209.044 258.168 209.044 258.689C209.044 259.131 209.119 259.557 209.273 259.966H199.905C199.373 259.966 199.029 259.876 198.878 259.702C198.721 259.523 198.643 259.227 198.643 258.818V255.261H196.483V259.002C196.483 259.412 196.41 259.674 196.259 259.792C196.113 259.904 195.848 259.966 195.472 259.966H172.035C171.777 259.966 171.581 259.91 171.444 259.809C171.307 259.702 171.234 259.456 171.234 259.067V250.016H169.075V259.367C169.075 259.843 169.14 260.24 169.269 260.566C169.395 260.884 169.571 261.143 169.801 261.335C170.027 261.528 170.296 261.668 170.612 261.753C170.929 261.837 171.273 261.875 171.651 261.875H195.817C196.041 261.875 196.266 261.867 196.492 261.853C196.719 261.837 196.94 261.8 197.148 261.741C197.36 261.689 197.556 261.602 197.747 261.487C197.864 261.416 197.965 261.321 198.061 261.221C198.166 261.405 198.598 261.873 200.199 261.873C200.235 261.873 201.823 261.875 201.823 261.875H217.333V260.329C217.333 258.44 216.773 256.992 215.661 255.987C214.546 254.984 212.961 254.483 210.9 254.483Z" fill="white"/>
</svg>
