<svg width="162" height="242" viewBox="0 0 162 242" fill="none" xmlns="http://www.w3.org/2000/svg">
<g clip-path="url(#clip0_973_29)">
<path d="M79.625 48.375H62.5625C58.0372 48.375 53.6973 50.1727 50.4975 53.3725C47.2977 56.5723 45.5 60.9122 45.5 65.4375V190.563C45.5 195.088 47.2977 199.428 50.4975 202.628C53.6973 205.827 58.0372 207.625 62.5625 207.625H119.438C123.963 207.625 128.303 205.827 131.503 202.628C134.702 199.428 136.5 195.088 136.5 190.563V65.4375C136.5 60.9122 134.702 56.5723 131.503 53.3725C128.303 50.1727 123.963 48.375 119.438 48.375H102.375M79.625 48.375V59.75H102.375V48.375M79.625 48.375H102.375M79.625 190.563H102.375" stroke="#FFC738" stroke-width="11.375" stroke-linecap="round" stroke-linejoin="round"/>
</g>
<defs>
<clipPath id="clip0_973_29">
<path d="M0 81C0 36.2649 36.2649 0 81 0C125.735 0 162 36.2649 162 81V161C162 205.735 125.735 242 81 242C36.2649 242 0 205.735 0 161V81Z" fill="white"/>
</clipPath>
</defs>
</svg>
