<svg width="270" height="242" viewBox="0 0 270 242" fill="none" xmlns="http://www.w3.org/2000/svg">
<path d="M135 86.375H148.875M135 114.125H148.875M79.5 141.875H148.875M79.5 169.625H148.875M176.625 86.375H207.844C213.588 86.375 218.25 91.037 218.25 96.7812V183.5C218.25 189.02 216.057 194.314 212.154 198.217C208.251 202.12 202.957 204.312 197.438 204.312M176.625 86.375V183.5C176.625 189.02 178.818 194.314 182.721 198.217C186.624 202.12 191.918 204.312 197.438 204.312M176.625 86.375V62.0938C176.625 56.3495 171.963 51.6875 166.219 51.6875H62.1562C56.412 51.6875 51.75 56.3495 51.75 62.0938V183.5C51.75 189.02 53.9427 194.314 57.8458 198.217C61.7489 202.12 67.0427 204.312 72.5625 204.312H197.438M79.5 86.375H107.25V114.125H79.5V86.375Z" stroke="#67FF94" stroke-width="13.875" stroke-linecap="round" stroke-linejoin="round"/>
</svg>
