<svg width="390" height="244" viewBox="0 0 390 244" fill="none" xmlns="http://www.w3.org/2000/svg">
<g clip-path="url(#clip0_4233_133)">
<mask id="mask0_4233_133" style="mask-type:luminance" maskUnits="userSpaceOnUse" x="0" y="0" width="390" height="244">
<path d="M389.67 0H0V243.4H389.67V0Z" fill="white"/>
</mask>
<g mask="url(#mask0_4233_133)">
<path d="M299.02 108.96C298.69 108.78 298.39 108.69 298.29 108.53C298.21 108.48 298.13 108.44 298.13 108.35L298.21 108.21V107.96H298.04C297.71 108.44 297.53 108.78 297.37 109.01C297.37 109.09 297.33 109.16 297.33 109.3L297.37 109.46C297.44 109.57 297.53 109.65 297.62 109.68C297.73 110.71 297.89 111.41 297.94 112.03C297.94 112.18 297.98 112.49 298.05 112.8C298.09 113.28 298.12 113.6 298.12 113.73C298.12 113.85 298.09 113.99 298.09 113.99V114.05C297.89 114.05 294.31 114.05 292.96 114.1C292.56 114.05 292.34 113.9 292.34 113.6L292.82 111.87V111.41C292.63 111.5 292.45 111.68 292.19 111.93C291.94 112.16 291.78 112.32 291.78 112.45C291.78 112.45 291.76 112.81 291.67 113.27C291.63 113.68 291.55 113.96 291.43 114.11H285.11C285.17 113.84 285.17 113.68 285.17 113.68V112.18C284.66 112.8 284.34 113.14 284.34 113.14C284.34 113.14 284.38 113.27 284.5 113.52C284.54 113.73 284.58 114 284.54 114.11H283.92C283.42 114.06 283.25 114 283.29 113.86L283.66 112.46C283.1 112.82 282.75 113.15 282.7 113.29V113.74C282.7 114 282.7 114.11 282.63 114.11L280.89 114.18H280.8C280.43 114.18 280.26 114.06 280.19 114C280.39 113.74 280.47 113.52 280.55 113.06C280.55 112.81 280.57 112.5 280.57 112.16C280.25 112.5 279.99 112.81 279.72 113.14V113.68C279.67 114 279.55 114.18 279.35 114.18L243.94 114.11C243.61 114 243.25 113.74 242.89 113.27C242.57 112.81 242.36 112.5 242.1 112.11L241.54 113.05C241.66 113.14 241.81 113.28 242.05 113.71C242.36 114.1 242.53 114.37 242.53 114.44C242.53 114.75 242.19 115.32 241.45 116.05C240.69 116.8 240.12 117.19 239.64 117.19C239.47 117.19 239.18 117.12 238.79 116.96C238.42 116.79 238.29 116.74 238.26 116.74L238.18 116.76L238.13 116.8V116.97C238.29 117.07 238.65 117.2 239.17 117.48C239.86 117.77 240.28 117.86 240.56 117.86C241.02 117.86 241.53 117.48 242.16 116.59C242.69 115.75 243 115.13 243 114.69C243.06 114.76 243.18 114.86 243.3 114.93C243.45 115 243.57 115.06 243.61 115.08H279.13C279.18 115.08 279.36 115 279.59 114.76C279.7 114.86 279.78 115 279.81 115.08H282.01C282.1 115.08 282.22 115.06 282.34 115C282.34 115 282.41 115 282.54 114.86C282.66 114.79 282.67 114.76 282.67 114.76C282.72 114.76 282.8 114.79 282.91 114.86C283.07 114.93 283.1 115 283.16 115C283.29 115.06 283.55 115.08 283.94 115.08H291.57C291.65 114.86 291.74 114.69 291.87 114.56C292.13 114.86 292.32 115.08 292.42 115.08H298.28C298.37 114.86 298.49 114.69 298.53 114.45C298.53 114.19 298.63 114 298.63 113.74C298.66 113.56 298.67 113.47 298.67 113.28L298.37 110.06L298.49 110.08C298.67 109.76 298.87 109.37 299.01 108.98M300.32 108.91L300.96 115.07C301.26 114.44 301.37 113.85 301.37 113.37L301.06 107.27C300.56 108.13 300.31 108.67 300.31 108.91H300.32ZM282.32 110.71C282.78 110.89 283.11 111.14 283.36 111.26C283.56 110.9 283.72 110.59 283.78 110.46L282.77 109.82C282.77 109.82 282.67 109.92 282.6 110.14C282.54 110.3 282.41 110.37 282.36 110.37C281.94 110.06 281.58 109.9 281.29 109.74C280.99 110.3 280.87 110.53 280.87 110.53C281.48 110.89 281.86 111.14 281.97 111.19C282.17 110.83 282.32 110.71 282.32 110.71ZM282.68 108.78L281.59 108.29C281.5 108.32 281.45 108.45 281.37 108.66C281.27 108.78 281.25 108.91 281.16 108.96L282.27 109.58L282.68 108.78ZM292.55 109.48C292.67 109.31 292.75 109.1 292.8 108.96L291.53 108.32L290.99 109.31C291.52 109.57 291.92 109.83 292.32 109.93C292.32 109.93 292.44 109.75 292.54 109.48H292.55ZM306.29 112.26C306.21 112.15 306.1 111.92 305.96 111.78C305.72 111.4 305.62 111.35 305.47 111.35C305.18 111.35 304.94 111.65 304.57 112.17C304.14 112.79 303.93 113.26 303.93 113.54C303.93 113.82 304.07 114.09 304.14 114.36C304.36 114.63 304.59 114.77 304.95 114.77C305.42 114.77 305.78 114.54 306.06 113.9L306.1 113.99V114.17C306.17 114.29 306.17 114.36 306.17 114.36C306.17 115.11 305.46 115.92 304.13 116.79C303.74 117.06 303.41 117.23 303.05 117.23C303.03 117.23 302.81 117.18 302.47 117.11C302.07 117 301.86 116.97 301.86 116.97C301.74 116.97 301.69 117 301.67 117.11C301.79 117.27 302.18 117.39 302.78 117.54C303.03 117.57 303.33 117.65 303.66 117.76H304.13C304.66 117.76 305.1 117.47 305.54 116.85C305.9 116.44 306.18 115.89 306.35 115.31C306.43 114.74 306.52 114.36 306.52 114.1C306.56 113.99 306.56 113.83 306.56 113.73C306.56 113.55 306.52 113.27 306.43 112.8C306.38 112.62 306.31 112.41 306.28 112.26H306.29ZM305.28 113.73C305.08 113.73 304.96 113.71 304.78 113.68C304.58 113.55 304.43 113.47 304.43 113.27C304.43 113.14 304.53 113 304.72 112.81C304.91 112.63 305.04 112.61 305.14 112.61C305.31 112.61 305.46 112.68 305.65 113C305.77 113.15 305.82 113.38 305.87 113.56C305.66 113.69 305.46 113.74 305.26 113.74L305.28 113.73ZM364.94 117.27C365.27 117.47 365.68 117.74 366.28 117.99L366.76 117L365.45 116.4C365.31 116.64 365.15 116.92 364.94 117.27ZM341.56 114.1C341.43 114.05 341.36 114.05 341.31 113.99C340.62 113.55 340.2 113.26 340.09 113.1C339.99 112.99 339.98 112.99 339.98 112.8C339.98 112.63 340.25 112.49 340.73 112.28C341.13 112.16 341.41 112.12 341.64 112.12C341.81 112.12 341.97 112.15 342.2 112.17C342.63 112.44 342.95 112.61 343.12 112.79L343.16 112.61C342.95 111.91 342.63 111.4 342.13 111.24C341.97 111.19 341.91 111.13 341.77 111.13C341.65 111.13 341.4 111.19 341.17 111.25C340.78 111.4 340.4 111.64 339.98 112.1C339.64 112.43 339.35 112.79 339.19 113.26V113.67C339.24 113.95 339.35 114.1 339.36 114.1H313.72C313.44 114.1 313.22 113.99 313.11 113.9C313.05 113.84 313.05 113.83 313.05 113.72C312.86 111.92 312.67 110.61 312.57 109.74C312.2 110.2 311.98 110.49 311.93 110.61C311.93 110.83 311.93 111.06 311.98 111.18C311.84 111.25 311.6 111.34 311.22 111.39C310.83 111.55 310.61 111.66 310.46 111.84C309.99 112.25 309.7 112.79 309.55 113.66C309.7 113.71 309.89 113.83 310.06 113.94C310.2 113.97 310.31 113.97 310.52 114.03C311.22 114.22 311.6 114.35 311.64 114.35C311.78 114.35 311.8 114.28 311.84 114.23C311.93 114.16 311.98 113.98 311.99 113.89C312.13 113.71 312.21 113.59 312.36 113.53C312.42 113.66 312.42 113.71 312.43 113.83C312.46 114.26 312.51 114.53 312.57 114.53C312.58 114.73 312.71 114.9 312.9 114.97C312.96 115.03 313.06 115.05 313.12 115.05H343.79L344.3 114.08H341.56V114.1ZM311.84 113.28C311.78 113.28 311.6 113.27 311.46 113.27C311.29 113.18 311.05 113.14 310.74 113.06C310.57 113 310.41 112.81 310.27 112.74C310.43 112.63 310.65 112.61 310.99 112.42C311.29 112.29 311.54 112.19 311.61 112.17C311.81 111.94 311.94 111.8 312.07 111.56L312.33 113.29H311.84V113.28ZM389.13 110.06C389.34 109.74 389.55 109.35 389.67 108.96C389.34 108.78 389.09 108.69 388.91 108.53C388.79 108.48 388.77 108.44 388.77 108.35V108.21C388.77 108.21 388.78 108.03 388.78 107.96H388.69C388.38 108.44 388.2 108.78 388.08 109.01C388.03 109.09 387.98 109.16 387.98 109.3C387.98 109.3 387.98 109.46 388.08 109.46C388.17 109.57 388.2 109.65 388.25 109.68C388.4 110.71 388.51 111.41 388.55 112.03C388.61 112.18 388.61 112.49 388.68 112.8C388.68 113.28 388.76 113.6 388.76 113.73V113.99L388.69 114.05C388.55 114.05 385.86 114.05 384.53 114.1H384.39C384.3 113.05 384.25 112.26 384.25 111.78C384.25 111.4 384.17 111.08 384.17 110.89C384.08 110.06 384.05 109.47 384.03 109.09C384.03 108.72 383.98 108.28 383.95 107.79L383.09 108.81L383.79 114.09H379.48C379.67 113.66 379.73 113.45 379.73 113.45C379.73 112.98 379.48 112.61 379.05 112.25C378.64 111.84 378.22 111.64 377.93 111.64H377.69C377.17 111.84 376.61 112.14 375.97 112.66C375.3 113.25 374.79 113.53 374.49 113.7C374.49 113.59 374.56 113.45 374.58 113.09C374.66 112.79 374.66 112.59 374.66 112.27C374.66 112.27 374.66 112.15 374.73 111.92V111.78L374.58 109.68C374.58 109.68 374.62 109.75 374.66 109.75H374.73L375.35 108.65C374.95 108.33 374.63 108.23 374.49 108.08C374.35 108.04 374.32 107.97 374.32 107.97C374.32 107.97 374.34 107.81 374.37 107.51C374.34 107.47 374.32 107.43 374.25 107.43C373.92 107.88 373.7 108.29 373.6 108.49C373.52 108.65 373.49 108.74 373.49 108.74C373.49 108.89 373.52 108.97 373.52 108.97C373.6 109.06 373.7 109.17 373.82 109.31C373.89 110.31 374.01 111.25 374.03 111.86C374.07 112.13 374.07 112.32 374.07 112.5C374.07 112.64 374.07 112.81 374.14 113.14C374.2 113.49 374.23 113.55 374.23 113.55C374.23 113.73 374.07 113.85 373.88 113.99C373.6 114.05 373.39 114.1 373.25 114.1H367.44L367.25 113.95C367.17 113.9 367.08 113.83 367.08 113.72V112.79C367.08 112.79 367.08 112.59 367.04 112.14C367.04 111.91 366.99 111.77 366.97 111.66C366.73 111.84 366.61 112.02 366.49 112.16C366.4 112.3 366.34 112.59 366.25 112.66C366.25 112.66 366.19 112.79 366.19 112.86C366.19 112.86 366.25 113.04 366.25 113.36C366.33 113.7 366.34 113.9 366.34 114.09H347.82C347.2 114.09 346.86 113.94 346.83 113.59C346.7 112.59 346.58 111.48 346.46 110.45C346.31 108.43 346.21 107.35 346.21 107.09C345.83 107.48 345.61 107.78 345.53 107.94C345.51 107.94 345.51 108.05 345.51 108.19L346.04 115.04H366C366.14 114.75 366.28 114.52 366.4 114.52C366.49 114.82 366.54 115.02 366.62 115.04H383.44C383.5 115.04 383.61 114.89 383.78 114.61C383.83 114.65 383.83 114.68 383.83 114.68V115.02L388.9 115.04C389.08 114.82 389.15 114.65 389.19 114.41C389.21 114.15 389.3 113.96 389.33 113.7C389.33 113.52 389.36 113.43 389.36 113.24L389.04 110.02L389.12 110.04L389.13 110.06ZM378.65 114.05C378.33 114.1 378.22 114.1 378.13 114.1H374.95C375.08 114.05 375.41 113.85 375.88 113.49C376.38 113.05 376.65 112.8 376.94 112.8C377.07 112.73 377.21 112.67 377.41 112.67C377.6 112.67 377.77 112.73 377.93 112.8C378.15 112.87 378.32 113.05 378.57 113.26C378.87 113.54 378.98 113.72 378.94 113.9C378.86 113.99 378.76 114.05 378.64 114.05H378.65ZM310.69 109.46C310.91 109.09 311.01 108.96 311.04 108.87C311.6 109.17 311.93 109.39 312.1 109.47L312.56 108.72L311.39 108.06C311.22 108.34 311.09 108.63 311.04 108.65C310.61 108.41 310.26 108.21 309.99 108.06L309.55 108.81C309.7 108.89 309.89 108.95 310.13 109.08C310.42 109.29 310.62 109.33 310.7 109.45L310.69 109.46Z" fill="white"/>
<path d="M389.49 75.21H350.46L343.27 82.45V93.41H279.85V75.21H273.84V93.41H256.49V75.22H250.51V93.41H233.67V75.22H227.62V93.41H147.93V64.29H141.91V99.41H226.45L230.63 95.25L234.81 99.41H249.29L253.47 95.25L257.78 99.41H389.67L389.54 99.37V75.21H389.48H389.49ZM383.52 93.36H349.27V81.27H383.52V93.36Z" fill="white"/>
<path d="M136.5 86.99V75.11H129.97V86.99L119.63 105.74H126.11L136.5 86.99Z" fill="white"/>
<path d="M154.23 188.84C154.85 195.05 150.59 194.91 144.51 188.62C138.43 182.42 133.11 173.26 132.93 168.16C132.65 163.1 137.23 163.01 142.92 168.16C148.63 173.26 153.58 182.66 154.24 188.84H154.23Z" fill="white"/>
<path d="M163.27 12.38C164.52 20.65 162.65 27.68 159.23 28.11C155.74 28.62 152.16 23.29 151.2 16.16C150.29 9.05002 152.07 1.87002 155.21 0.27002C158.35 -1.27998 162.01 4.14002 163.27 12.38Z" fill="white"/>
<path d="M150.16 16.51C151.19 23.67 149.15 30 145.71 30.62C142.27 31.24 138.99 26.8 138.42 20.76C137.8 14.59 139.75 8.22001 142.81 6.53001C145.89 4.80001 149.23 9.29001 150.16 16.52V16.51Z" fill="white"/>
<path d="M137.39 21.06C138.04 27.32 135.77 32.87 132.36 33.62C129 34.37 126.06 30.94 125.87 25.75C125.63 20.65 127.81 15.02 130.78 13.19C133.75 11.34 136.71 14.92 137.39 21.05V21.06Z" fill="white"/>
<path d="M124.87 26.2301C125.13 31.3701 122.61 36.2701 119.21 37.1601C115.93 38.0901 113.39 35.4701 113.57 31.3401C113.84 27.2801 116.33 22.2501 119.14 20.3301C122.02 18.3301 124.61 21.0001 124.87 26.2301Z" fill="white"/>
<path d="M112.63 31.83C112.47 36.03 109.61 40.18 106.28 41.18C103 42.25 100.93 40.55 101.64 37.43C102.34 34.24 105.14 29.96 107.91 27.91C110.66 25.86 112.8 27.63 112.63 31.83Z" fill="white"/>
<path d="M100.7 37.9C100.06 41.13 96.8399 44.62 93.5699 45.74C90.3299 46.94 88.78 46.06 90.04 43.89C91.3 41.68 94.3899 38.1 97.0699 35.96C99.7299 33.73 101.4 34.66 100.71 37.91L100.7 37.9Z" fill="white"/>
<path d="M89.11 44.48C87.95 46.73 84.28 49.57 81.11 50.81C77.9 52.15 76.88 52.15 78.69 50.88C80.56 49.58 84.11 46.64 86.63 44.37C89.19 42.09 90.32 42.16 89.11 44.48Z" fill="white"/>
<path d="M168.13 44.37C169.33 52.61 167.35 58.8 163.61 58.24C159.84 57.7 155.99 51.49 155.04 44.48C154.11 37.31 156.16 30.97 159.58 30.43C163.06 29.86 166.88 36.15 168.13 44.37Z" fill="white"/>
<path d="M153.9 44.4801C154.85 51.6601 152.63 57.1401 148.89 56.6901C145.09 56.2701 141.55 51.1101 140.91 44.9701C140.29 38.8901 142.54 33.3501 145.94 32.6101C149.38 31.8501 152.99 37.2501 153.9 44.4801Z" fill="white"/>
<path d="M139.78 45.0201C140.48 51.2201 137.91 56.0101 134.11 55.7801C130.37 55.4601 127.13 51.2201 126.86 46.1001C126.66 41.0301 129.14 36.1401 132.5 35.3201C135.89 34.4601 139.16 38.8801 139.79 45.0301L139.78 45.0201Z" fill="white"/>
<path d="M125.72 46.24C125.98 51.43 123.18 55.46 119.32 55.39C115.61 55.32 112.64 51.88 112.89 47.83C113.14 43.73 115.96 39.5 119.22 38.59C122.53 37.57 125.48 41.03 125.73 46.24H125.72Z" fill="white"/>
<path d="M111.8 47.9901C111.59 52.1501 108.39 55.5301 104.6 55.6301C100.81 55.6301 98.29 53.2101 99.03 50.0601C99.72 46.9401 102.93 43.4301 106.16 42.3401C109.44 41.1801 111.93 43.8201 111.79 47.9901H111.8Z" fill="white"/>
<path d="M97.87 50.22C97.24 53.49 93.67 56.22 89.87 56.43C86.03 56.63 84.03 55.06 85.27 52.85C86.55 50.64 90.09 47.82 93.27 46.54C96.48 45.4 98.62 47 97.87 50.23V50.22Z" fill="white"/>
<path d="M84.17 53.08C82.96 55.35 78.91 57.45 75.17 57.81C71.37 58.13 69.77 57.45 71.67 56.12C73.52 54.91 77.55 52.71 80.66 51.36C83.84 50 85.39 50.77 84.17 53.08Z" fill="white"/>
<path d="M70.58 56.4501C68.73 57.8401 64.26 59.2601 60.51 59.7901C56.74 60.2701 55.74 60.3701 58.21 60.0201C60.71 59.7201 65.18 58.1301 68.23 56.6101C71.3 55.1301 72.39 55.0401 70.58 56.4401V56.4501Z" fill="white"/>
<path d="M95.11 62.61C94.46 65.84 90.44 67.84 86.1 67.05C81.79 66.35 79.24 64.02 80.56 61.83C81.79 59.57 85.79 57.5 89.54 57.25C93.27 56.94 95.78 59.43 95.11 62.61Z" fill="white"/>
<path d="M79.24 61.76C78.04 64.04 73.52 65.36 69.16 64.75C64.79 64.21 62.7199 62.72 64.5899 61.47C66.4499 60.26 70.9499 58.78 74.6999 58.35C78.4299 57.87 80.44 59.46 79.25 61.76H79.24Z" fill="white"/>
<path d="M63.3299 61.4701C61.5099 62.9001 56.5199 63.5401 52.0799 63.1501C47.6999 62.7201 46.1699 62.2001 48.5999 61.8301C51.1099 61.4701 56.1499 60.5701 59.8499 60.0301C63.5599 59.4301 65.1499 60.1401 63.3299 61.4701Z" fill="white"/>
<path d="M92.36 75.01C91.69 78.27 87.25 79.47 82.35 77.68C77.5 76.03 74.51 72.91 75.77 70.73C77.03 68.56 81.55 67.22 85.78 67.9C90.09 68.56 93.04 71.79 92.36 75.02V75.01Z" fill="white"/>
<path d="M74.32 70.4201C73.11 72.7101 68.14 73.2501 63.23 71.7401C58.22 70.2801 55.72 68.0701 57.52 66.8401C59.41 65.5401 64.41 64.8101 68.7 65.3001C73.03 65.8001 75.56 68.1401 74.32 70.4201Z" fill="white"/>
<path d="M56.0699 66.54C54.2999 67.89 48.7499 67.87 43.6999 66.57C38.6599 65.21 36.5599 63.98 39.0199 63.59C41.5299 63.23 47.1399 63.05 51.4299 63.41C55.7999 63.75 57.8599 65.19 56.0699 66.53V66.54Z" fill="white"/>
<path d="M182.59 140.35C183.9 148.64 181.25 152.23 176.63 148.7C172.03 145.02 167.42 136.3 166.49 129.22C165.6 122.14 168.32 118.31 172.61 120.8C176.92 123.3 181.37 132.14 182.59 140.34V140.35Z" fill="white"/>
<path d="M165.1 128.28C166.08 135.46 163.09 138.47 158.26 135.06C153.52 131.6 149.08 124 148.51 117.79C147.86 111.78 150.97 108.64 155.42 110.9C159.84 113.28 164.15 121.06 165.1 128.28Z" fill="white"/>
<path d="M89.54 87.35C88.88 90.6 84.03 91.04 78.63 88.38C73.21 85.78 69.77 81.92 71.03 79.71C72.31 77.48 77.26 76.92 82.03 78.5C86.87 80.12 90.23 84.12 89.54 87.35Z" fill="white"/>
<path d="M69.4 79.08C68.21 81.38 62.83 81.14 57.25 78.74C51.69 76.31 48.61 73.38 50.48 72.1C52.35 70.86 57.85 70.86 62.73 72.3C67.68 73.71 70.66 76.83 69.41 79.09L69.4 79.08Z" fill="white"/>
<path d="M48.83 71.5001C47.03 72.9001 41.01 72.1 35.28 69.89C29.66 67.71 26.99 65.7401 29.46 65.3601C32.01 64.9801 38.08 65.59 43.04 66.84C48.07 68.02 50.62 70.2101 48.84 71.5001H48.83Z" fill="white"/>
<path d="M187.41 172.41C188.74 180.64 185.88 183.42 181 178.77C176.11 174.08 171.33 164.67 170.34 157.51C169.41 150.38 172.4 147.45 176.96 150.94C181.54 154.44 186.24 164.12 187.41 172.41Z" fill="white"/>
<path d="M168.88 156.21C169.81 163.49 166.58 165.62 161.47 161.13C156.31 156.65 151.66 148.22 150.97 142.08C150.38 136.06 153.8 133.72 158.52 137.07C163.28 140.35 167.89 149.06 168.88 156.21Z" fill="white"/>
<path d="M86.77 99.78C86.1 102.99 80.8 102.6 74.89 99.09C68.93 95.45 65.01 90.87 66.29 88.69C67.57 86.46 72.96 86.63 78.32 89.19C83.66 91.76 87.47 96.5 86.77 99.78Z" fill="white"/>
<path d="M64.54 87.68C63.28 90.02 57.4 89 51.24 85.71C45.11 82.3 41.53 78.71 43.43 77.41C45.3 76.24 51.24 76.93 56.79 79.27C62.28 81.62 65.72 85.46 64.54 87.68Z" fill="white"/>
<path d="M41.53 76.5801C39.79 77.9301 33.24 76.4201 26.91 73.3101C20.56 70.2101 17.41 67.5001 19.91 67.1401C22.42 66.7301 29.05 68.0701 34.65 70.2101C40.31 72.2901 43.39 75.2101 41.53 76.5801Z" fill="white"/>
<path d="M192.32 204.34C193.57 212.67 190.53 214.59 185.33 208.89C180.18 203.24 175.12 192.91 174.14 185.78C173.25 178.65 176.45 176.51 181.31 181.1C186.19 185.6 191.02 196.13 192.32 204.35V204.34Z" fill="white"/>
<path d="M172.54 184.24C173.51 191.42 170.06 192.67 164.6 187.25C159.17 181.78 154.15 172.5 153.52 166.35C152.89 160.27 156.61 158.72 161.69 163.14C166.77 167.52 171.62 176.92 172.54 184.24Z" fill="white"/>
<path d="M151.84 164.85C152.48 171.04 148.51 171.72 142.77 166.49C137.08 161.23 132.14 152.94 131.9 147.83C131.66 142.73 135.88 141.91 141.18 145.98C146.45 150.22 151.19 158.67 151.84 164.84V164.85Z" fill="white"/>
<path d="M130.15 146.43C130.39 151.6 125.89 151.6 119.9 146.61C113.89 141.58 109.12 134.27 109.36 130.17C109.58 126.07 114.29 125.79 119.79 129.74C125.32 133.72 129.91 141.17 130.15 146.43Z" fill="white"/>
<path d="M107.54 128.81C107.33 132.98 102.23 132.45 96.0099 127.61C89.7599 122.86 85.1399 116.57 85.8899 113.49C86.5899 110.3 91.8899 110.62 97.5799 114.36C103.29 118.05 107.7 124.61 107.54 128.81Z" fill="white"/>
<path d="M84 112.15C83.27 115.36 77.62 114.17 71.12 109.68C64.65 105.13 60.27 99.79 61.56 97.55C62.83 95.43 68.7 96.39 74.55 99.8C80.5 103.35 84.65 108.91 84 112.16V112.15Z" fill="white"/>
<path d="M59.55 96.39C58.35 98.67 52.03 96.96 45.29 92.7C38.53 88.42 34.55 84.05 36.33 82.75C38.19 81.52 44.7 83 50.77 86.3C56.87 89.49 60.76 94.09 59.55 96.39Z" fill="white"/>
<path d="M34.3 81.62C32.49 83 25.51 80.7 18.53 76.74C11.57 72.76 7.80994 69.28 10.32 68.95C12.87 68.56 20.02 70.57 26.29 73.64C32.53 76.62 36.1 80.27 34.31 81.62H34.3Z" fill="white"/>
<path d="M27.07 86.69C25.25 88 17.75 85.05 10.1 80.11C2.46998 75.21 -1.80002 71.08 0.729978 70.64C3.21998 70.3 10.98 73.03 17.9 77.01C24.78 80.89 28.81 85.28 27.07 86.69Z" fill="white"/>
<path d="M197.15 236.38C198.4 244.63 195.11 245.72 189.75 239.02C184.26 232.28 178.92 221.11 178 214.07C177.03 206.92 180.57 205.56 185.69 211.18C190.83 216.8 195.9 228.08 197.15 236.38Z" fill="white"/>
<path d="M176.29 212.13C177.25 219.35 173.49 219.83 167.75 213.36C161.97 206.84 156.64 196.78 156.02 190.63C155.41 184.58 159.41 183.87 164.8 189.24C170.24 194.64 175.3 204.95 176.29 212.14V212.13Z" fill="white"/>
<path d="M131.03 166.45C131.28 171.61 126.44 170.86 119.99 164.85C113.57 158.83 108.45 150.74 108.62 146.61C108.86 142.53 113.96 143.15 119.9 148C125.88 152.95 130.75 161.24 131.04 166.46L131.03 166.45Z" fill="white"/>
<path d="M106.63 144.98C106.47 149.18 101.02 147.84 94.3 142.08C87.53 136.3 82.58 129.22 83.22 126.07C84 122.97 89.68 124.05 95.87 128.78C102.09 133.43 106.89 140.78 106.63 144.98Z" fill="white"/>
<path d="M81.21 124.54C80.56 127.75 74.42 125.78 67.4 120.34C60.35 114.85 55.56 108.78 56.81 106.56C58.08 104.33 64.45 106.06 70.86 110.5C77.29 114.99 81.83 121.29 81.21 124.54Z" fill="white"/>
<path d="M54.64 105.04C53.4 107.32 46.64 104.83 39.3 99.68C32 94.49 27.46 89.35 29.3 88.07C31.16 86.8 38.15 89.01 44.87 93.23C51.48 97.4 55.86 102.75 54.63 105.05L54.64 105.04Z" fill="white"/>
</g>
</g>
<defs>
<clipPath id="clip0_4233_133">
<rect width="390" height="244" fill="white"/>
</clipPath>
</defs>
</svg>
