<svg width="297" height="242" viewBox="0 0 297 242" fill="none" xmlns="http://www.w3.org/2000/svg">
<path d="M64.25 84.5L223.75 44.625M144 77.25C117.823 77.25 92.1577 79.4153 67.1693 83.5817C56.9903 85.2733 49.75 94.2343 49.75 104.549V193.25C49.75 199.018 52.0415 204.551 56.1204 208.63C60.1993 212.708 65.7315 215 71.5 215H216.5C222.268 215 227.801 212.708 231.88 208.63C235.958 204.551 238.25 199.018 238.25 193.25V104.549C238.25 94.2343 231 85.2733 220.831 83.5817C195.439 79.3581 169.741 77.2403 144 77.25ZM127.731 139.532L127.683 139.581L127.625 139.532L127.683 139.484L127.731 139.532ZM127.683 160.093L127.634 160.035L127.683 159.987L127.731 160.035L127.683 160.093ZM107.228 160.035L107.18 160.093L107.122 160.035L107.17 159.987L107.228 160.035ZM107.18 139.581L107.122 139.532L107.18 139.484L107.228 139.532L107.18 139.581ZM117.465 113.5V113.577H117.388V113.5H117.465ZM148.872 131.673L148.804 131.712L148.775 131.644L148.833 131.615L148.872 131.673ZM135.532 181.225L135.503 181.167L135.561 181.128L135.6 181.196L135.542 181.225H135.532ZM135.6 118.382L135.571 118.44L135.503 118.411L135.542 118.343L135.6 118.382ZM148.843 167.962L148.775 167.923L148.814 167.865L148.872 167.894L148.833 167.962H148.843ZM153.715 149.818H153.638V149.75H153.715V149.818ZM117.465 186V186.077H117.388V186H117.465ZM86.087 167.923L86.0193 167.962L86 167.894L86.058 167.865L86.0967 167.923H86.087ZM99.2917 118.44L99.253 118.382L99.311 118.343L99.3497 118.411L99.2917 118.44ZM99.34 181.167L99.311 181.225L99.2433 181.196L99.282 181.128L99.34 181.167ZM86.0387 131.712L86 131.673L86.029 131.606L86.0967 131.644L86.058 131.712H86.0387ZM81.2053 149.818H81.128V149.75H81.2053V149.818ZM194.75 135.25C192.827 135.25 190.983 134.486 189.623 133.127C188.264 131.767 187.5 129.923 187.5 128C187.5 126.077 188.264 124.233 189.623 122.873C190.983 121.514 192.827 120.75 194.75 120.75C196.673 120.75 198.517 121.514 199.877 122.873C201.236 124.233 202 126.077 202 128C202 129.923 201.236 131.767 199.877 133.127C198.517 134.486 196.673 135.25 194.75 135.25ZM194.75 178.75C192.827 178.75 190.983 177.986 189.623 176.627C188.264 175.267 187.5 173.423 187.5 171.5C187.5 169.577 188.264 167.733 189.623 166.373C190.983 165.014 192.827 164.25 194.75 164.25C196.673 164.25 198.517 165.014 199.877 166.373C201.236 167.733 202 169.577 202 171.5C202 173.423 201.236 175.267 199.877 176.627C198.517 177.986 196.673 178.75 194.75 178.75Z" stroke="#AA6BFF" stroke-width="14.5" stroke-linecap="round" stroke-linejoin="round"/>
</svg>
