<svg width="427" height="109" viewBox="0 0 427 109" fill="none" xmlns="http://www.w3.org/2000/svg">
<g clip-path="url(#clip0_976_2)">
<mask id="mask0_976_2" style="mask-type:luminance" maskUnits="userSpaceOnUse" x="0" y="0" width="427" height="109">
<path d="M427 0H0V109H427V0Z" fill="white"/>
</mask>
<g mask="url(#mask0_976_2)">
<mask id="mask1_976_2" style="mask-type:luminance" maskUnits="userSpaceOnUse" x="0" y="0" width="427" height="109">
<path d="M426.09 0H0V108.79H426.09V0Z" fill="white"/>
</mask>
<g mask="url(#mask1_976_2)">
<path d="M109.91 47.1201H85.4302V71.6001H109.91V47.1201Z" fill="black"/>
<path d="M79.3501 47.1201H54.8401V71.6001H79.3501V47.1201Z" fill="black"/>
<path d="M243.99 4.63C238.86 1.15 236.56 0 223.89 0H194.17V24.55H221.25C230.03 24.55 235.81 27.23 235.81 35.82C235.81 44.41 230.03 47.12 221.25 47.12H193.7V71.6H223.89C236.56 71.6 238.86 70.55 243.99 66.98C251.78 61.26 255.85 50.8 255.85 35.82C255.85 20.84 251.78 10.36 243.99 4.63Z" fill="black"/>
<path d="M161.97 17.54C161.97 26.27 159.2 32.15 150.67 32.15C142.14 32.15 139.39 26.27 139.39 17.54V0H32C19.31 0 17.01 1.15 11.82 4.63C4.06 10.39 0 20.82 0 35.82C0 50.82 4.06 61.26 11.83 66.98C17.02 70.55 19.32 71.6 32.01 71.6H45.83V47.12H34.57C25.84 47.12 19.99 44.4 19.99 35.82C19.99 27.24 25.84 24.55 34.57 24.55H115C115.3 33.48 116.44 35.78 119.58 40.32C122.97 44.94 128 48.24 134.74 50.16C137.01 45.53 141.22 42.05 146.28 40.74C147.73 40.36 149.26 40.14 150.84 40.14C153.37 40.14 155.82 40.74 158 41.79C161.75 43.5 164.79 46.49 166.59 50.18C173.33 48.29 178.46 44.97 181.82 40.32C185.43 35.14 186.47 32.82 186.47 20.15V0H161.98V17.54H161.97Z" fill="black"/>
<path d="M150.67 44.51C143.21 44.51 137.12 50.57 137.12 58.03C137.12 65.49 143.21 71.59 150.67 71.59C158.13 71.59 164.22 65.52 164.22 58.03C164.22 50.54 158.13 44.51 150.67 44.51Z" fill="black"/>
<path d="M278.73 37.2999C278.73 47.4599 275.13 48.2699 270.79 48.2699C270.57 48.2699 261.44 48.2699 261.2 48.2499H260.72V71.5399C260.72 71.5399 275.2 71.5899 276.17 71.5899C293.11 71.5899 303.24 60.5699 303.24 42.1599V0.209961H278.74V37.2999H278.73Z" fill="black"/>
<path d="M426.01 29.7599L425.75 0.209961H402.77V26.6699C402.82 26.9099 402.77 27.3099 402.77 27.5299C402.77 31.8599 401.95 35.4799 391.82 35.4799H360.17V0.209961H336.25C325.52 0.209961 323.59 0.969961 319.22 3.20996C312.66 6.93996 309.21 13.7099 309.21 23.4599C309.21 33.2099 312.66 39.9399 319.22 43.6699C320.66 44.4399 321.86 45.1299 323.19 45.7499C323.19 45.7499 325.17 46.6699 328.69 48.2499H311.14V71.5299C311.14 71.5299 334.99 71.5899 335.92 71.5899C346.08 71.5899 352.89 67.4299 356.66 59.9499H396.67C415.09 59.9499 426.08 49.8499 426.08 32.8999C426.08 31.9499 426.08 31.1999 425.99 29.7599H426.01ZM339.7 32.5199L337.27 32.4099C333.09 32.4099 329.69 28.9999 329.69 24.8199C329.69 20.6399 333.09 17.2099 337.27 17.2099L339.7 17.3199V32.5199Z" fill="black"/>
<path d="M393.88 0.209961H369.41V24.6899H393.88V0.209961Z" fill="black"/>
<path d="M40.0799 108.42L34.4899 99.0399L33.7099 97.7099H33.6799V108.42H30.1899V91.9399H34.0099L39.6199 101.33L40.3999 102.66V91.9399H43.9099V108.42H40.0799Z" fill="black"/>
<path d="M75.47 100.23C75.47 94.9799 78.97 91.6699 83.42 91.6699C87.87 91.6699 91.12 95.0299 91.12 100.23C91.12 105.43 87.58 108.79 83.12 108.79C78.66 108.79 75.47 105.43 75.47 100.23ZM87.45 100.23C87.45 96.4999 85.9 94.7799 83.42 94.7799C80.94 94.7799 79.1 96.4599 79.1 100.23C79.1 104 80.6 105.68 83.11 105.68C85.62 105.68 87.45 104.02 87.45 100.23Z" fill="black"/>
<path d="M121.95 100.23C121.95 94.9799 125.47 91.6699 129.89 91.6699C134.31 91.6699 137.6 95.0299 137.6 100.23C137.6 105.43 134.06 108.79 129.61 108.79C125.16 108.79 121.95 105.43 121.95 100.23ZM133.94 100.23C133.94 96.4999 132.4 94.7799 129.9 94.7799C127.4 94.7799 125.6 96.4599 125.6 100.23C125.6 104 127.09 105.68 129.61 105.68C132.13 105.68 133.94 104.02 133.94 100.23Z" fill="black"/>
<path d="M169.15 108.42V91.9399H175.99C179.25 91.9399 181.58 93.1199 181.58 96.3299C181.58 98.7699 180.2 100.25 177.62 100.82C179.55 101.2 180.25 102.15 180.9 103.92L182.51 108.42H178.67L177.42 104.66C176.87 103.03 176.21 102.28 174.59 102.28H172.76V108.42H169.15ZM174.64 99.5599C176.56 99.5599 177.92 98.9099 177.92 97.0799C177.92 95.2499 176.87 94.8799 175.68 94.8799H172.76V99.5599H174.64Z" fill="black"/>
<path d="M234.06 100.01C234.06 105.43 230.56 108.42 226.37 108.42H219.48V91.9399H226.57C230.93 91.9399 234.05 94.7299 234.05 100.01H234.06ZM226.16 105.27C228.58 105.27 230.39 103.78 230.39 100.02C230.39 96.2599 228.83 95.0999 226.39 95.0999H223.11V105.27H226.16Z" fill="black"/>
<path d="M272.08 108.79C267.91 108.79 265.38 106.28 265.38 101.64V91.9399H269.02V101.5C269.02 104.3 270.01 105.51 272.1 105.51C274.19 105.51 275.4 104.34 275.4 101.5V91.9399H279.03V101.64C279.03 106.3 276.22 108.79 272.08 108.79Z" fill="black"/>
<path d="M323.08 96.0099C323.08 97.9999 321.9 99.2099 319.86 99.7799C322.28 100.19 323.57 101.26 323.57 103.54C323.57 106.61 321.07 108.42 317.86 108.42H311.04V91.9399H317.46C320.77 91.9399 323.07 93.0899 323.07 96.0099H323.08ZM316.77 98.7099C318.37 98.7099 319.49 98.1399 319.49 96.6799C319.49 95.2199 318.33 94.8199 317.11 94.8199H314.67V98.6999H316.77V98.7099ZM317.5 105.54C318.8 105.54 319.93 104.86 319.93 103.3C319.93 101.74 318.8 101.24 317.14 101.24H314.66V105.54H317.49H317.5Z" fill="black"/>
<path d="M365.29 108.42L364.02 104.12H358.83L357.56 108.42H353.79L359.39 91.9399H363.52L369.15 108.42H365.3H365.29ZM363.21 101.37L361.93 97.0699L361.46 95.1199H361.42L360.92 97.0699L359.65 101.37H363.23H363.21Z" fill="black"/>
<path d="M403.74 108.42H400.12V91.9399H403.74V108.42Z" fill="black"/>
</g>
</g>
</g>
<defs>
<clipPath id="clip0_976_2">
<rect width="427" height="109" fill="white"/>
</clipPath>
</defs>
</svg>
