<svg width="361" height="261" viewBox="0 0 361 261" fill="none" xmlns="http://www.w3.org/2000/svg">
<g clip-path="url(#clip0_4234_207)">
<path d="M12.7601 235.98C13.6301 235.98 14.3801 235.66 15.0201 235.03C15.6501 234.4 15.9701 233.65 15.9701 232.78C15.9701 231.91 15.6501 231.16 15.0201 230.52C14.3901 229.89 13.6401 229.57 12.7601 229.57C11.8801 229.57 11.1401 229.88 10.5101 230.52C9.88006 231.15 9.56006 231.9 9.56006 232.78C9.56006 233.66 9.88006 234.4 10.5101 235.03C11.1401 235.66 11.8901 235.98 12.7601 235.98Z" fill="black"/>
<path d="M127.91 231.2C126.92 231.2 125.93 231.35 124.95 231.65C123.97 231.95 123.05 232.37 122.18 232.91C121.31 233.45 120.52 234.09 119.81 234.83C119.1 235.57 118.53 236.39 118.08 237.29V217.53H112.21V244.55H28.14C27.72 244.55 27.31 244.5 26.9 244.39C26.49 244.29 26.13 244.11 25.82 243.87C25.5 243.63 25.25 243.31 25.06 242.9C24.86 242.49 24.76 241.99 24.76 241.39V237.47H18.95V248.75C18.95 250.97 18.41 252.56 17.35 253.51C16.28 254.46 14.62 254.93 12.37 254.93C10.12 254.93 8.58 254.37 7.5 253.26C6.42 252.15 5.88 250.54 5.88 248.43V242.48H0V248.66C0 252.54 1.03 255.46 3.09 257.41C5.15 259.36 8.21 260.34 12.27 260.34C14.2 260.34 15.92 260.14 17.44 259.75C18.96 259.36 20.24 258.7 21.3 257.77C22.35 256.84 23.17 255.6 23.76 254.05C24.35 252.5 24.67 250.57 24.73 248.26C25.15 248.83 25.73 249.22 26.45 249.43C26.82 249.54 27.04 249.54 27.33 249.59C27.38 249.61 27.43 249.66 27.48 249.68C27.69 249.72 27.92 249.75 28.16 249.75H137.49V241.68C137.49 238.4 136.7 235.84 135.12 233.99C133.54 232.14 131.15 231.22 127.93 231.22L127.91 231.2ZM131.6 244.55H118.34C118.73 243.47 119.23 242.45 119.85 241.51C120.47 240.56 121.17 239.73 121.95 239.01C122.73 238.29 123.57 237.72 124.48 237.32C125.38 236.91 126.28 236.71 127.19 236.71C128.03 236.71 128.73 236.84 129.29 237.09C129.84 237.34 130.3 237.69 130.64 238.13C130.99 238.57 131.24 239.08 131.38 239.69C131.53 240.29 131.6 240.95 131.6 241.67V244.56V244.55Z" fill="black"/>
<path d="M157.16 234.83C156.48 233.79 155.58 232.99 154.45 232.42C153.32 231.85 151.93 231.56 150.28 231.56C148.78 231.56 147.45 231.84 146.31 232.39C145.17 232.95 144.22 233.69 143.45 234.62C142.68 235.55 142.1 236.61 141.69 237.78C141.28 238.95 141.08 240.14 141.08 241.34C141.08 242.84 141.3 244.13 141.75 245.2C142.2 246.27 142.81 247.14 143.58 247.82C144.35 248.5 145.25 248.99 146.31 249.29C147.36 249.59 148.49 249.74 149.69 249.74C150.98 249.74 152.08 249.61 152.98 249.33C152.92 249.96 152.74 250.54 152.44 251.07C152.14 251.6 151.66 252.05 151.02 252.42C150.37 252.8 149.5 253.09 148.4 253.3C147.3 253.51 145.94 253.62 144.32 253.62H143.28V259.12H144.68C147.23 259.12 149.42 258.89 151.24 258.42C153.06 257.95 154.55 257.22 155.7 256.23C156.86 255.24 157.71 253.98 158.25 252.46C158.79 250.94 159.06 249.13 159.06 247.03V243.24C159.06 241.53 158.91 239.96 158.61 238.53C158.31 237.1 157.82 235.87 157.14 234.83H157.16ZM153.21 244.05C152.46 244.47 151.46 244.68 150.23 244.68C149.18 244.68 148.35 244.42 147.75 243.89C147.15 243.36 146.85 242.33 146.85 240.8C146.85 239.72 147.1 238.79 147.59 238C148.09 237.22 148.92 236.83 150.09 236.83C151.26 236.83 152.07 237.28 152.53 238.18C152.98 239.08 153.21 240.3 153.21 241.83V244.04V244.05Z" fill="black"/>
<path d="M241.69 220.78C240.82 220.78 240.07 221.09 239.44 221.73C238.81 222.36 238.49 223.11 238.49 223.98C238.49 224.85 238.81 225.6 239.44 226.24C240.07 226.87 240.82 227.19 241.69 227.19C242.56 227.19 243.31 226.87 243.95 226.24C244.59 225.61 244.9 224.86 244.9 223.98C244.9 223.1 244.58 222.36 243.95 221.73C243.32 221.1 242.57 220.78 241.69 220.78Z" fill="black"/>
<path d="M238.85 244.55H184.83C184.13 244.55 183.6 244.41 183.23 244.12C182.85 243.83 182.67 243.17 182.67 242.11V217.53H176.81V242.92C176.81 244.21 176.98 245.29 177.33 246.17C177.67 247.04 178.16 247.74 178.78 248.27C179.4 248.8 180.13 249.17 180.99 249.4C181.84 249.63 182.78 249.74 183.81 249.74H244.74V231.79H238.88V244.55H238.85Z" fill="black"/>
<path d="M354.89 231.78V244.54H352.09C350.32 244.54 349.43 243.5 349.43 241.43V233.76H343.56V242.37C343.56 243.27 343.25 243.86 342.64 244.13C342.02 244.4 341.28 244.53 340.4 244.53C339.29 244.53 338.47 244.25 337.94 243.7C337.42 243.14 337.15 242.38 337.15 241.42V233.75H331.38V242.36C331.38 242.87 331.32 243.27 331.2 243.56C331.08 243.85 330.88 244.06 330.61 244.21C330.34 244.36 329.99 244.45 329.55 244.48C329.12 244.51 328.56 244.52 327.9 244.52H312.7C311.98 244.52 311.21 244.38 310.4 244.09C309.59 243.8 308.99 243.3 308.6 242.58C308.6 242.4 308.6 242.22 308.62 242.04C308.64 241.86 308.64 241.66 308.64 241.45C308.64 240.1 308.43 238.85 308.01 237.71C307.59 236.57 307.01 235.59 306.27 234.78C305.53 233.97 304.65 233.34 303.63 232.89C302.61 232.44 301.51 232.21 300.34 232.21C299.53 232.21 298.69 232.32 297.84 232.55C296.98 232.78 296.12 233.21 295.27 233.86C294.41 234.51 293.61 235.4 292.86 236.54C292.11 237.68 291.42 239.17 290.78 241.01C290.36 242.15 289.94 243.02 289.52 243.63C289.1 244.23 288.49 244.53 287.67 244.53H258.18C257.49 244.53 256.95 244.39 256.58 244.1C256.2 243.81 256.02 243.15 256.02 242.09V217.51H250.16V242.9C250.16 244.19 250.33 245.27 250.68 246.15C251.02 247.02 251.51 247.72 252.13 248.25C252.75 248.78 253.48 249.15 254.34 249.38C255.19 249.61 256.13 249.72 257.16 249.72H288.1C289.06 249.72 289.95 249.63 290.76 249.45C291.57 249.27 292.37 248.75 293.15 247.87C294.5 248.74 295.79 249.36 297.01 249.72C298.23 250.08 299.44 250.26 300.64 250.26C302.26 250.26 303.59 249.96 304.63 249.36C305.67 248.76 306.5 247.93 307.13 246.88C307.79 247.84 308.6 248.56 309.57 249.02C310.33 249.39 311.17 249.57 312.04 249.65C312.23 249.69 312.43 249.71 312.65 249.71C312.67 249.71 312.69 249.71 312.72 249.71H327.83C329.85 249.71 331.5 249.58 332.79 249.33C334.08 249.07 335.14 248.42 335.95 247.37C336.4 247.94 337.15 248.48 338.18 248.97C339.22 249.47 340.5 249.71 342.04 249.71C342.52 249.71 343.02 249.7 343.55 249.67C344.08 249.64 344.61 249.55 345.15 249.4C345.69 249.25 346.22 249.02 346.73 248.7C347.24 248.38 347.72 247.94 348.17 247.37C348.74 248.18 349.44 248.78 350.24 249.15C351.06 249.53 352.26 249.71 353.85 249.71H360.75V231.76H354.89V231.78ZM302.15 243.89C301.63 244.54 300.88 244.86 299.92 244.86C299.14 244.86 298.36 244.7 297.6 244.39C296.83 244.08 296.07 243.69 295.32 243.24C295.86 241.35 296.51 239.95 297.26 239.05C298.01 238.15 298.85 237.67 299.79 237.61C300.33 237.61 300.81 237.71 301.21 237.93C301.62 238.14 301.95 238.43 302.2 238.79C302.46 239.15 302.64 239.56 302.76 240.01C302.88 240.46 302.94 240.91 302.94 241.36C302.94 242.41 302.68 243.26 302.15 243.91V243.89Z" fill="black"/>
<path d="M30.18 167.34C29.71 169.58 28.65 171.55 26.95 173.27C25.72 174.5 24.21 175.43 22.47 176.05C20.7 176.66 18.78 176.97 16.72 176.97H2.70996V138.21H16.71C18.78 138.21 20.7 138.51 22.46 139.13C24.21 139.73 25.72 140.67 26.94 141.91C27.84 142.78 28.56 143.71 29.08 144.74C29.64 145.77 30.01 146.89 30.25 148.09C30.51 149.31 30.66 150.62 30.74 152.02C30.83 153.42 30.87 155.21 30.87 157.42C30.87 161.8 30.64 165.11 30.18 167.36V167.34ZM23 150.69C22.81 149.3 22.34 148.18 21.66 147.35C20.37 145.76 18.45 144.96 15.99 144.96H10.25V170.23H15.99C18.45 170.23 20.36 169.42 21.66 167.84C22.33 166.98 22.81 165.85 23 164.38C23.2 162.91 23.28 160.6 23.28 157.42C23.28 154.24 23.2 152.11 23 150.71V150.69Z" fill="black"/>
<path d="M117.24 169.24C116.53 170.9 115.51 172.34 114.18 173.56C112.88 174.78 111.38 175.72 109.63 176.34C107.88 176.99 106.03 177.29 104.07 177.29C102.11 177.29 100.25 176.99 98.5099 176.34C96.7599 175.72 95.2499 174.78 93.9199 173.56C92.6499 172.34 91.6099 170.9 90.8999 169.24C90.1599 167.57 89.8199 165.73 89.8199 163.68V138.21H97.3599V163.41C97.3599 165.62 97.9899 167.37 99.2199 168.65C100.43 169.9 102.04 170.54 104.07 170.54C106.1 170.54 107.78 169.9 108.99 168.65C110.22 167.37 110.82 165.62 110.82 163.41V138.21H118.35V163.68C118.35 165.73 117.98 167.57 117.25 169.24H117.24Z" fill="black"/>
<path d="M200.97 174.03C198.79 175.99 195.9 176.97 192.37 176.97H176.13V138.21H191.72C195.49 138.21 198.44 139.17 200.54 141.14C202.65 143.11 203.71 145.75 203.71 149.08C203.71 151.03 203.2 152.74 202.2 154.12C201.2 155.52 200.13 156.51 198.92 157.08C200.39 157.77 201.62 158.83 202.67 160.22C203.73 161.62 204.24 163.48 204.24 165.79C204.24 169.32 203.14 172.08 200.97 174.03ZM194.8 146.17C193.94 145.36 192.73 144.95 191.12 144.95H183.7V153.88H191.12C192.73 153.88 193.95 153.46 194.8 152.65C195.68 151.82 196.12 150.74 196.12 149.41C196.12 148.08 195.68 146.98 194.8 146.17ZM195.36 162.02C194.5 161.14 193.23 160.7 191.59 160.7H183.7V170.23H191.59C193.22 170.23 194.49 169.77 195.36 168.86C196.23 167.96 196.68 166.81 196.68 165.42C196.68 164.03 196.23 162.94 195.36 162.02Z" fill="black"/>
<path d="M283.39 176.97L281.13 170.1H267.34L265.01 176.97H257.09L271.21 138.21H277.14L291.31 176.97H283.4H283.39ZM274.36 149.65L269.46 163.75H279.1L274.36 149.65Z" fill="black"/>
<path d="M353.23 176.97V138.21H360.81V176.97H353.23Z" fill="black"/>
<path d="M360.79 26.5C360.75 25.89 360.57 25.62 360.38 25.61C359.54 25.49 357.8 28.87 357.39 29.6C354.24 35.68 350.68 44.5 343.83 47.23C340.9 48.38 336.76 48.4 334.52 45.87C333.48 44.67 333.05 42.99 332.86 41.43C334.6 37.83 339.63 26.3 337.53 25.69C337.47 25.68 337.42 25.67 337.39 25.66C336.8 25.76 336.37 26.1 336.11 26.66C332.17 31.37 328.27 36.1 324.34 40.8C321.72 43.96 319.08 47.07 315.28 48.87C312.24 50.31 308.58 50.87 305.26 50.3C303.93 50.07 302.53 49.68 301.42 48.87C301.16 48.68 300.95 48.43 300.75 48.17C300.77 48.03 300.81 47.89 300.86 47.74C303.34 44.39 305.58 40.88 307.52 37.15C309.44 33.38 311.96 28.23 311.96 23.91C311.98 19.96 309.05 25.55 308.55 26.52C304.63 34.21 296.33 41.76 288.74 46.73C279.77 52.59 269.94 57.67 259.91 61.41C242.45 67.92 223.6 69.66 205.13 67.7C188.83 65.97 173.03 61.6 157.38 56.99C143.86 53.01 130.12 48.49 116.03 47.38C102.45 46.35 90.5 50.01 79.77 58.43C74.23 62.82 70 69.25 67.31 76.19C67.22 76.21 67.13 76.21 67.03 76.23C48.85 78.48 22.61 78.25 13.93 58.27C10.76 51.03 10.33 42.8 10.93 35.01C11.51 27.4 13.01 20.43 14.9 13.95C15.07 13.4 15.37 12.39 15.39 12.33C15.5 11.97 15.63 11.57 15.76 11.19C16.17 9.91998 16.62 8.63998 17.05 7.34998C17.44 6.28998 19.44 1.02998 18.21 0.12998C18.13 0.0599805 18.04 0.00998047 17.91 -0.0200195H17.69C17.63 0.00998047 17.52 0.0599805 17.44 0.12998C16.55 0.80998 15.35 3.62998 15.15 4.00998C13.96 6.35998 13.06 8.81998 12.18 11.3C8.50996 21.65 4.38996 35.11 3.07996 48.24C2.88996 50.06 2.77996 51.85 2.70996 53.64C2.61996 55.51 2.61996 57.35 2.70996 59.18C2.75996 60.83 2.87996 62.41 3.07996 63.99C4.64996 77.02 10.8 88.17 25.36 93.4C35.06 96.87 45.52 96.81 55.65 95.77C58.45 95.47 61.29 95.08 64.14 94.64C64.92 102.24 68.84 109.45 74.28 114.79C80.58 120.98 88.81 123.92 97.54 121.69C109.1 118.73 114.01 106.47 116.28 95.78C118.47 85.31 110.67 76.61 100.76 74.36C93.06 72.6 84.87 73.58 76.87 74.79C77.47 74.36 78.1 73.91 78.75 73.5C89.12 66.78 100.48 65.34 112.64 66.85C126.27 68.57 139.48 72.96 152.64 76.81C167.6 81.18 182.76 85.23 198.32 86.83C215.72 88.59 233.33 87.05 249.95 81.42C265.36 76.18 281.12 68.36 292.96 56.82C292.75 57.66 292.53 58.46 292.36 59.18C291.51 62.62 291.13 66.05 294.53 68.16C301.89 72.76 311.52 67.05 316.41 61.56C319.67 57.9 322.79 54.1 325.9 50.31C325.6 51.65 325.34 53 325.14 54.38C324.43 59.45 325.31 66.21 331.52 66.94C337.32 67.61 341.63 63.65 344.95 59.45C349.6 53.61 352.93 46.83 356.35 40.22C357.8 37.39 359.57 33.8 360.38 30.36C360.57 29.38 360.75 28.41 360.79 27.49C360.79 27.31 360.81 27.13 360.81 26.97C360.81 26.78 360.79 26.63 360.79 26.49V26.5ZM88.86 92.75C93.67 93.14 98.35 94.5 102.21 97.49C103.87 98.81 105.4 100.35 106.56 102.1C105.6 102.47 104.56 102.74 103.52 102.93C99.66 103.68 95.55 103.52 91.82 102.34C86.75 100.78 82.23 97.17 78.81 92.8C82.13 92.56 85.52 92.48 88.86 92.75Z" fill="black"/>
</g>
<defs>
<clipPath id="clip0_4234_207">
<rect width="360.81" height="260.33" fill="white"/>
</clipPath>
</defs>
</svg>
