<svg width="461" height="167" viewBox="0 0 461 167" fill="none" xmlns="http://www.w3.org/2000/svg">
<mask id="mask0_4233_206" style="mask-type:luminance" maskUnits="userSpaceOnUse" x="0" y="0" width="461" height="167">
<path d="M460.3 0H0V166.28H460.3V0Z" fill="white"/>
</mask>
<g mask="url(#mask0_4233_206)">
<path d="M402.42 134.4C403.27 131.91 404.34 129.17 405.49 126.16C406.67 123.17 407.8 120.61 408.76 118.37C409.84 116.13 411.66 114.42 414.09 113.33C415.19 112.87 416.74 112.33 418.7 111.68C420.69 111.09 422.8 110.36 425.14 109.68C427.42 109 429.82 108.25 432.22 107.47C434.62 106.8 436.82 106.03 438.82 105.28C440.82 104.55 442.45 103.8 443.72 103.02C444.97 102.31 445.55 101.57 445.55 100.87C445.55 100.38 445.26 99.6 444.51 98.49C443.84 97.43 442.94 96.15 441.9 94.79C440.86 93.42 439.85 92.04 438.76 90.63C437.61 89.18 436.77 87.95 436.04 86.71C435.5 85.87 435.39 84.73 435.79 83.45C436.11 82.36 436.57 81.09 437.21 79.41C437.85 77.78 438.54 76.07 439.26 74.24C440.03 72.44 440.75 70.69 441.43 69.01C442.15 67.3 442.75 65.87 443.23 64.68C443.71 63.39 444.21 62.58 444.81 62.41C445.4 62.22 446.13 62.67 447.01 63.77C447.54 64.47 448.49 65.57 449.84 67.11C451.19 68.65 452.52 70.33 454 72.13C455.37 73.91 456.69 75.68 457.85 77.36C459.04 79.04 459.7 80.36 459.84 81.31C460.24 83.48 460.37 86.02 460.24 88.84C460.07 91.64 459.64 94.61 458.97 97.7C458.29 100.83 457.4 103.96 456.35 107.03C455.22 110.08 453.92 113.05 452.36 115.8C450.82 118.53 449.11 120.96 447.26 123.06C445.37 125.22 443.29 126.83 441.09 127.88C438.61 129.21 435.79 130.36 432.81 131.53C429.78 132.67 426.62 133.74 423.31 134.79C419.98 135.86 416.67 136.83 413.32 137.73C409.99 138.66 406.82 139.46 403.84 140.14C402.17 140.59 401.35 140.23 401.35 139.11C401.35 137.99 401.71 136.42 402.42 134.39" fill="white"/>
<path d="M349.54 60.22C350.41 58.93 351.11 58.3 351.63 58.3C352.46 58.24 353.66 58.1 355.04 57.86C356.46 57.62 357.86 57.28 359.26 56.92C360.63 56.5 361.79 55.97 362.79 55.31C363.77 54.65 364.28 53.86 364.28 53.02C364.28 52.46 364.04 51.54 363.66 50.32C363.26 49.06 362.79 47.7 362.26 46.24C361.69 44.82 361.16 43.33 360.63 41.88C360.13 40.42 359.76 39.18 359.51 38.17C359.37 37.45 359.66 36.1 360.43 34.01C361.16 31.94 362.08 29.62 363.16 27.23C364.24 24.82 365.2 22.5 366.23 20.28C367.26 18.09 367.99 16.53 368.39 15.69C368.92 14.52 369.41 13.74 369.82 13.4C370.17 13.07 370.58 12.91 370.93 13.07C371.26 13.19 371.61 13.46 371.94 13.94C372.25 14.4 372.54 14.94 372.86 15.59C373.56 17.01 374.29 18.64 375.03 20.59C375.78 22.5 376.48 24.39 377.08 26.29C377.66 28.09 378.09 29.75 378.45 31.3C378.82 32.79 378.98 33.91 378.98 34.53C378.98 36.37 378.68 38.67 378 41.31C377.31 43.94 376.53 46.52 375.55 49.08C374.63 51.61 373.68 53.9 372.67 55.97C371.69 57.99 370.9 59.42 370.28 60.21H349.53L349.54 60.22Z" fill="white"/>
<path d="M369.9 59.77C372.35 60.01 375.07 60.23 377.86 60.42C380.66 60.64 383.15 61.26 385.4 62.22C387.67 63.19 389.3 64.7 390.47 66.8C391.62 68.89 391.75 71.88 391 75.82C389.58 82.73 387.15 89.1 383.75 94.89C380.31 100.71 376.31 105.97 371.69 110.67C367.03 115.37 362 119.46 356.62 123.02C351.26 126.53 345.9 129.52 340.53 131.91C335.21 134.27 330.08 136.14 325.13 137.32C320.25 138.51 316 139.15 312.46 139.15C307.28 139.15 302.42 138.31 297.83 136.56C293.3 134.81 289.35 132.33 286 129.18C282.66 125.92 280.09 122.04 278.25 117.45C276.43 112.93 275.71 107.78 276 102.08C275.95 99.87 276.27 97 277.03 93.42C277.76 89.83 278.8 86.08 280.11 82.12C281.38 78.17 282.88 74.16 284.45 70.26C286.07 66.34 287.73 62.91 289.48 60.01C290.73 57.9 291.82 56.45 292.78 55.67C293.72 54.87 294.42 54.58 294.9 54.67C295.33 54.79 295.62 55.26 295.68 56.04C295.68 56.92 295.45 57.86 294.9 58.86C293.98 60.84 293 62.9 292.05 64.97C291.14 67.09 290.32 69.28 289.62 71.52C288.97 73.76 288.42 76 288.12 78.34C287.77 80.68 287.67 82.97 287.82 85.35C288.12 89.24 289.02 92.94 290.61 96.3C292.12 99.68 294.27 102.57 297.12 105.04C299.87 107.45 303.25 109.28 307.22 110.67C311.18 112.01 315.75 112.58 320.84 112.44C324.12 112.34 327.72 111.88 331.53 110.96C335.33 110.08 339.1 108.95 342.9 107.56C346.66 106.25 350.3 104.76 353.8 103.1C357.3 101.45 360.44 99.87 363.12 98.3C365.82 96.72 368 95.3 369.62 94.01C371.22 92.69 372 91.72 372 91.01C372 90.07 371.32 89.31 370.07 88.73C368.76 88.12 367.08 87.63 365.07 87.26C363.01 86.87 360.74 86.54 358.2 86.35C355.73 86.19 353.3 85.98 350.92 85.81C348.55 85.65 346.47 85.45 344.6 85.32C342.76 85.09 341.43 84.84 340.6 84.52C340.07 84.32 339.96 83.74 340.18 82.87C340.46 81.46 341.01 79.7 341.62 77.58C342.31 75.47 343.04 73.27 343.91 71.04C344.71 68.81 345.55 66.7 346.5 64.65C347.4 62.58 348.27 60.99 349.1 59.78H369.9V59.77Z" fill="white"/>
<path d="M379.23 125.58C379.7 125.25 380.6 125.25 382 125.58C383.36 125.87 384.76 126.42 386.17 127.1C387.6 127.8 388.9 128.63 390.07 129.68C391.27 130.72 391.94 131.73 392.1 132.73C392.17 133.31 391.97 134.75 391.5 137.07C391 139.43 390.37 141.99 389.5 144.66C388.61 147.38 387.55 149.9 386.25 152.14C384.95 154.41 383.57 155.86 382.09 156.3C381.38 156.5 380.44 156.37 379.24 155.88C378.08 155.37 376.86 154.72 375.65 153.87C374.4 153.04 373.33 152.13 372.41 151.1C371.43 150.1 370.86 149.17 370.66 148.27C370.46 147.64 370.68 146.22 371.26 144.01C371.88 141.77 372.63 139.34 373.58 136.81C374.5 134.25 375.53 131.89 376.6 129.66C377.64 127.47 378.51 126.08 379.24 125.56" fill="white"/>
<path d="M259.28 90.45C261.24 87.84 262.46 86.67 262.9 87.04C263.48 87.4 263.63 88.5 263.48 90.34C262.61 99.67 260.41 107.63 256.9 114.18C253.38 120.84 248.64 126.31 242.71 130.59C236.83 134.89 229.79 138.25 221.59 140.5C213.38 142.77 204.21 144.25 194.05 144.79C191.96 144.96 190.09 144.99 188.36 144.89C186.68 144.86 185.36 144.67 184.43 144.34C183.54 144.07 183.16 143.59 183.34 142.95C183.49 142.23 184.43 141.45 186.18 140.49C187.61 139.59 189.98 138.32 193.43 136.44C196.86 134.6 200.79 132.45 205.43 129.92C209.98 127.39 214.89 124.55 220.11 121.44C225.37 118.37 230.47 115.04 235.41 111.6C240.36 108.14 244.94 104.68 249.12 101.1C253.39 97.5 256.76 93.97 259.28 90.48" fill="white"/>
<path d="M212.31 84.09C212.06 83.17 211.22 82.25 209.68 81.34C208.2 80.42 206.51 79.62 204.62 78.89C202.8 78.19 200.9 77.6 199.04 77.05C197.12 76.56 195.67 76.31 194.59 76.22C192.94 76.06 191.27 76.51 189.63 77.52C188.05 78.54 186.47 79.97 184.93 81.68C183.37 83.45 181.95 85.38 180.49 87.48C179.05 89.65 177.79 91.64 176.7 93.66C175.6 95.66 174.62 97.41 173.79 98.95C173.07 100.5 172.44 101.55 172.04 102.15C171.5 102.89 170.02 103.66 167.64 104.54C165.25 105.41 162.41 106.25 159.24 107.06C156.02 107.86 152.69 108.54 149.31 109.15C146.07 109.72 143.27 110.18 140.83 110.5V110.28C139.89 110.16 139.35 109.79 139.12 109.12C138.92 108.46 138.71 107.53 138.54 106.38C138.33 103.72 137.94 99.72 137.4 94.36C136.93 89 136.39 82.99 135.84 76.29C135.25 69.62 134.63 62.59 133.93 55.23C133.29 47.86 132.62 40.91 132.01 34.31C131.38 27.69 130.83 21.83 130.31 16.61C129.83 11.44 129.44 7.59998 129.19 5.22998C128.95 2.98998 128.53 1.74998 127.82 1.47998C127.16 1.22998 126.36 1.92998 125.46 3.45998C124.78 4.72998 123.93 6.29998 122.89 8.29998C121.88 10.22 120.82 12.12 119.82 14.07C118.76 16 117.87 17.73 117.11 19.31C116.35 20.9 115.95 21.89 115.89 22.25C115.89 22.62 116.03 24.34 116.32 27.45C116.62 30.59 117 34.58 117.42 39.48C117.87 44.4 118.4 49.96 118.89 56.21C119.44 62.5 120.03 68.98 120.56 75.69C121.19 82.34 121.75 89.06 122.28 95.64C122.81 102.3 123.34 108.4 123.86 114.03C124.36 119.66 124.77 124.5 125.05 128.59C125.32 132.73 125.54 135.56 125.61 137.28C125.61 137.92 125.79 138.31 126.17 138.5C126.52 138.69 126.9 138.77 127.35 138.77C131.52 138.53 135.85 137.92 140.3 136.99V137.21C146.05 135.95 151.97 134.46 158.07 132.65C164.22 130.78 169.93 128.83 175.22 126.71C180.57 124.58 185.26 122.43 189.27 120.31C193.33 118.12 196.15 116.05 197.84 114.08C198.84 112.88 199.92 111.48 201.1 109.78C202.25 108.16 203.44 106.32 204.55 104.39C205.79 102.45 206.85 100.47 207.84 98.38C208.93 96.4 209.88 94.43 210.57 92.52C211.36 90.68 211.88 89.04 212.22 87.48C212.51 86.03 212.58 84.87 212.31 84.04" fill="white"/>
<path d="M33.29 142.61C26.72 142.39 21.07 140.81 16.25 137.98C11.5 135.18 7.73999 131.32 5.04999 126.43C2.31999 121.56 0.699989 115.71 0.169989 108.92C-0.370011 102.17 0.369989 94.67 2.33999 86.44C3.08999 83.28 4.23999 79.81 5.77999 75.92C7.32999 72.07 9.04999 68.08 10.97 63.96C12.89 59.82 14.97 55.81 17.1 51.81C19.37 47.83 21.49 44.12 23.55 40.68C25.65 37.2 27.57 34.18 29.45 31.62C31.27 29.07 32.79 27.16 33.92 25.89C34.19 25.63 34.74 25.84 35.62 26.53C36.48 27.21 37.52 28.11 38.68 29.28C39.83 30.44 41.1 31.76 42.4 33.3C43.74 34.88 45 36.39 46.17 37.95C47.35 39.46 48.27 40.93 49.1 42.29C49.88 43.65 50.32 44.68 50.42 45.45C50.56 47 50.25 49.15 49.39 51.97C48.55 54.79 47.47 57.59 46.22 60.38C44.91 63.13 43.62 65.59 42.3 67.66C40.94 69.75 39.85 70.71 39.03 70.61C38.3 70.51 37.31 69.93 36.15 68.74C34.94 67.58 33.67 66.23 32.31 64.7C30.99 63.19 29.66 61.58 28.37 60C27.09 58.35 25.99 57.06 25.1 56.04C24.15 57.37 23 59.25 21.54 61.7C20.06 64.18 18.61 66.87 17.13 69.81C15.65 72.78 14.45 75.86 13.35 79.06C12.3 82.21 11.73 85.18 11.73 87.98C11.73 90.1 12.12 92.66 12.88 95.58C13.63 98.43 15.09 101.28 17.3 103.98C19.48 106.68 22.61 109 26.54 110.96C30.48 112.96 35.65 114.13 41.96 114.38C46.35 114.54 51.14 113.93 56.31 112.65C61.48 111.28 66.39 109.28 71.16 106.74C75.96 104.15 80.17 101.08 83.96 97.39C87.72 93.74 90.47 89.7 92.26 85.18C92.34 84.38 91.92 82.85 91.04 80.58C90.2 78.34 89.17 75.88 87.97 73.25C86.75 70.57 85.54 67.92 84.4 65.22C83.24 62.51 82.42 60.27 81.91 58.54C81.71 57.99 81.96 56.62 82.55 54.6C83.12 52.6 83.82 50.33 84.71 47.83C85.57 45.32 86.46 42.88 87.34 40.53C88.21 38.18 88.83 36.33 89.22 35.02C89.92 32.76 90.73 31.54 91.69 31.45C92.64 31.33 93.47 32.27 94.24 34.24C95.18 36.73 96.18 39.44 97.35 42.4C98.43 45.37 99.49 48.32 100.51 51.28C101.51 54.2 102.29 57 102.96 59.68C103.66 62.28 103.98 64.6 103.98 66.55C104.16 73.81 103.29 80.84 101.51 87.5C99.66 94.2 97.12 100.38 93.78 106.06C90.51 111.78 86.63 116.9 82.06 121.61C77.52 126.2 72.63 130.14 67.35 133.37C62.07 136.56 56.52 138.93 50.76 140.6C44.94 142.21 39.16 142.86 33.33 142.62" fill="white"/>
<path d="M257.71 33.91C258.24 33.66 259.21 33.66 260.61 33.91C262.11 34.27 263.59 34.86 265.07 35.59C266.61 36.29 267.94 37.19 269.21 38.29C270.49 39.39 271.11 40.46 271.31 41.55C271.39 42.09 271.22 43.64 270.73 46.14C270.2 48.62 269.5 51.32 268.59 54.13C267.65 57.05 266.52 59.66 265.14 62.08C263.78 64.5 262.31 65.96 260.71 66.46C259.94 66.73 258.98 66.56 257.71 66.02C256.49 65.47 255.19 64.76 253.89 63.91C252.59 63.04 251.48 62.04 250.48 60.93C249.47 59.9 248.87 58.91 248.59 57.99C248.44 57.33 248.68 55.8 249.29 53.46C249.92 51.05 250.75 48.55 251.72 45.86C252.71 43.15 253.77 40.66 254.91 38.3C256.02 35.97 256.96 34.53 257.71 33.92" fill="white"/>
<path d="M298.47 161.3C298.95 159.84 299.37 158.5 299.71 157.28C300.08 156.05 300.57 154.53 301.09 152.76C301.39 151.89 301.63 151.2 301.82 150.66C301.99 150.18 302.24 149.81 302.4 149.61C302.61 149.39 302.87 149.29 303.22 149.22C303.54 149.19 303.97 149.19 304.56 149.19H331.46C332.29 149.19 332.94 149.19 333.42 149.22C333.86 149.29 334.14 149.44 334.34 149.73C334.45 150.09 334.45 150.46 334.34 151.12C334.14 151.71 333.87 152.58 333.48 153.68C332.86 155.17 332.36 156.52 331.84 157.73C331.52 158.74 331.15 159.68 330.83 160.55C330.48 161.4 330.34 161.81 330.34 161.81C329.92 162.83 329.52 163.68 329.19 164.25C328.83 164.87 328.44 165.3 328.04 165.59C327.66 165.93 327.17 166.13 326.61 166.18C326.02 166.23 325.29 166.28 324.41 166.28H298.81C298.26 166.28 297.87 166.15 297.66 165.86C297.43 165.59 297.43 165.09 297.58 164.43C297.66 163.73 297.96 162.66 298.46 161.3" fill="white"/>
<path d="M459.77 26.73C459.42 28 458.94 29.22 458.29 30.37C457.64 31.53 456.9 32.43 455.96 33.06C455.31 32.44 454.57 31.83 453.78 31.12C452.97 30.48 452.17 29.86 451.36 29.22C450.63 28.64 449.86 28.1 449.2 27.63C448.46 27.11 447.88 26.86 447.53 26.73C445.58 28.9 443.35 30.99 440.8 33C438.27 35.07 435.68 36.92 433.05 38.6C430.45 40.24 427.85 41.69 425.35 42.87C422.89 44.07 420.7 44.91 418.8 45.43C415.37 46.34 413.68 46.57 413.64 46.02C413.64 45.51 415.14 44.32 418.2 42.44C419.69 41.54 421.26 40.46 423.02 39.33C424.75 38.17 426.52 37.01 428.25 35.72C429.98 34.43 431.72 33.24 433.37 31.99C435.04 30.79 436.48 29.61 437.84 28.55C439.19 27.52 440.25 26.65 441.14 25.87C442.07 25.14 442.65 24.63 442.92 24.36C441.4 23.61 440.11 22.48 439.08 21.02C438.05 19.56 437.53 17.98 437.53 16.27C437.53 14.82 437.9 13.15 438.74 11.38C439.57 9.53 440.55 7.87 441.77 6.29C442.99 4.76 444.3 3.45 445.71 2.4C447.03 1.3 448.35 0.809998 449.54 0.809998C449.88 0.809998 450.33 0.979998 450.87 1.3C451.4 1.69 451.97 2.24 452.46 3.01C452.94 3.74 453.44 4.67 453.78 5.85C454.16 6.95 454.34 8.33 454.34 9.9C454.34 11.21 454.31 12.33 454.26 13.26C454.17 14.28 454.01 15.1 453.92 15.86C453.76 16.56 453.59 17.21 453.39 17.77C453.19 18.36 452.94 18.9 452.69 19.43C453.18 19.82 453.8 20.24 454.59 20.89C455.38 21.48 456.15 22.11 456.93 22.8C457.68 23.51 458.37 24.19 458.9 24.87C459.48 25.57 459.73 26.14 459.73 26.71M447.55 9.25C446.88 9.25 446.23 9.4 445.66 9.7C445.08 10.04 444.52 10.47 444.03 10.94C443.58 11.42 443.22 11.92 442.95 12.48C442.68 13.07 442.53 13.52 442.53 13.94C442.53 14.16 442.78 14.45 443.23 14.75C443.68 15.09 444.24 15.43 444.88 15.77C445.51 16.12 446.2 16.41 446.89 16.75C447.59 17.09 448.24 17.27 448.74 17.46C449.23 16.52 449.47 15.61 449.58 14.62C449.72 13.6 449.69 12.74 449.51 11.96C449.37 11.15 449.1 10.45 448.74 9.98C448.39 9.47 448.01 9.24 447.56 9.24" fill="white"/>
<path d="M187.61 14.29C186.91 15.59 185.66 16.9 183.89 18.41C182.17 19.84 180.17 21.36 177.83 22.82C175.58 24.4 173.05 25.82 170.33 27.23C167.53 28.61 164.78 29.85 162.01 30.89C158.63 32.33 156.65 32.53 156.24 31.57C155.76 30.59 156.88 29.05 159.71 26.98C160.53 26.46 161.71 25.76 163.18 24.93C164.67 24.2 166.26 23.29 167.97 22.25C169.63 21.27 171.29 20.2 172.96 19.06C174.61 17.9 175.99 16.76 177.06 15.58C177.06 15.24 176.53 14.83 175.39 14.44C174.24 14.03 172.94 13.61 171.39 13.24C169.89 12.88 168.28 12.58 166.69 12.34C165.12 12.08 163.86 11.95 162.94 11.95C162.13 11.95 161.36 12.04 160.64 12.18C159.92 12.44 159.13 12.74 158.24 13.25C157.42 13.83 156.44 14.48 155.43 15.36C154.29 16.17 153 17.27 151.49 18.56C149.99 19.93 149.01 20.46 148.43 20.11C147.9 19.73 148.29 18.68 149.61 16.88C151.37 14.47 153.13 12.18 154.91 10.18C156.73 8.11001 158.41 6.36 159.99 4.85C161.63 3.37 163.04 2.19 164.31 1.39C165.53 0.580005 166.46 0.130005 167.08 0.130005C168.28 0.130005 169.85 0.290005 171.63 0.580005C173.49 0.870005 175.38 1.16 177.34 1.56C179.3 1.95 181.21 2.39 183.06 2.85C184.86 3.27 186.39 3.73 187.61 4.08C188.53 4.42 189.09 5.03 189.36 6.03C189.56 7.00001 189.56 8 189.36 9.08C189.18 10.22 188.89 11.28 188.54 12.25C188.17 13.23 187.9 13.91 187.62 14.26" fill="white"/>
<path d="M330.74 14.29C329.98 15.59 328.75 16.9 327.02 18.41C325.29 19.84 323.27 21.36 320.97 22.82C318.64 24.4 316.16 25.82 313.41 27.23C310.66 28.61 307.9 29.85 305.15 30.89C301.72 32.33 299.79 32.53 299.34 31.57C298.87 30.59 300.06 29.05 302.86 26.98C303.64 26.46 304.81 25.76 306.32 24.93C307.79 24.2 309.34 23.29 311.06 22.25C312.74 21.27 314.44 20.2 316.09 19.06C317.69 17.9 319.07 16.76 320.2 15.58C320.2 15.24 319.65 14.83 318.5 14.44C317.35 14.03 316.02 13.61 314.53 13.24C312.97 12.88 311.4 12.58 309.85 12.34C308.23 12.08 307 11.95 306.08 11.95C305.3 11.95 304.53 12.04 303.78 12.18C303.07 12.44 302.24 12.74 301.4 13.25C300.55 13.83 299.6 14.48 298.52 15.36C297.44 16.17 296.12 17.27 294.6 18.56C293.14 19.93 292.12 20.46 291.53 20.11C291.05 19.73 291.45 18.68 292.78 16.88C294.47 14.47 296.23 12.18 298.02 10.18C299.84 8.11001 301.54 6.36 303.12 4.85C304.73 3.37 306.14 2.19 307.4 1.39C308.67 0.580005 309.61 0.130005 310.2 0.130005C311.4 0.130005 312.93 0.290005 314.8 0.580005C316.65 0.870005 318.55 1.16 320.5 1.56C322.45 1.95 324.36 2.39 326.15 2.85C328 3.27 329.53 3.73 330.75 4.08C331.67 4.42 332.23 5.03 332.46 6.03C332.66 7.00001 332.71 8 332.46 9.08C332.32 10.22 332.04 11.28 331.68 12.25C331.31 13.23 331.02 13.91 330.76 14.26" fill="white"/>
<path d="M267.24 1.96997C267.24 2.15997 267.21 2.57997 267.11 3.18997C267.05 3.86997 266.91 4.54997 266.79 5.20997C266.71 6.08997 266.6 6.94997 266.42 7.91997C266.32 7.98997 265.72 8.32997 264.57 8.88997C263.43 9.47997 261.98 10.19 260.29 11.05C258.61 11.86 256.75 12.76 254.71 13.75C252.66 14.7 250.64 15.7 248.68 16.63C246.71 17.53 244.94 18.41 243.23 19.18C241.6 19.96 240.35 20.6 239.43 21.03C238.79 21.37 237.91 21.83 236.73 22.45C235.6 23.04 234.33 23.75 232.89 24.54C231.43 25.31 229.91 26.09 228.28 26.99C226.66 27.87 225.06 28.76 223.44 29.64C221.81 30.44 220.31 31.32 218.76 32.1C217.29 32.9 215.97 33.62 214.76 34.19C213.57 34.8 212.66 35.32 211.93 35.63C211.18 36.02 210.76 36.24 210.64 36.24C210.64 35.85 210.64 35.37 210.68 34.66C210.71 34 210.76 33.39 210.88 32.71C210.94 32.05 211.06 31.45 211.14 30.91C211.23 30.4 211.37 30.1 211.54 30C211.58 30 211.93 29.77 212.66 29.44C213.31 29.08 214.22 28.63 215.32 28.01C216.42 27.47 217.69 26.82 219.04 26.06C220.47 25.31 221.91 24.54 223.38 23.76C224.88 22.99 226.37 22.21 227.84 21.41C229.33 20.63 230.67 19.88 231.89 19.27C233.15 18.66 234.16 18.07 235.03 17.61C235.94 17.12 236.58 16.83 236.87 16.66C237.26 16.5 237.96 16.09 239.04 15.61C240.09 15 241.37 14.42 242.89 13.64C244.35 12.93 245.9 12.16 247.71 11.26C249.47 10.42 251.28 9.53997 253.05 8.63997C254.83 7.77997 256.61 6.92997 258.26 6.11997C259.93 5.31997 261.43 4.59997 262.77 3.94997C264.06 3.29997 265.17 2.82997 265.95 2.45997C266.76 2.07997 267.21 1.96997 267.23 1.97997" fill="white"/>
<path d="M72.78 5.72C72.4 4.55 71.79 3.49 71.13 2.68C70.39 1.83 69.58 1.12 68.68 0.7C67.76 0.24 66.83 0 65.76 0C64.88 0 63.95 0.42 62.94 1.23C61.96 2.07 60.94 3.11 59.82 4.44C58.79 5.71 57.76 7.19 56.77 8.82C55.81 10.41 54.95 12.03 54.22 13.62C53.49 15.24 52.91 16.81 52.45 18.17C51.96 19.63 51.77 20.8 51.77 21.65C51.77 23.35 52.25 24.82 53.3 26.05C54.3 27.2 56.06 27.82 58.6 27.82C60.72 27.82 62.7 27.24 64.5 26.05C66.35 24.89 67.92 23.4 69.24 21.62C70.55 19.84 71.59 17.87 72.34 15.75C73.04 13.58 73.41 11.58 73.41 9.61C73.41 8.2 73.21 6.91 72.79 5.73M68.85 16.85C68.18 17.52 67.37 18.05 66.45 18.4C65.53 18.81 64.63 19.06 63.68 19.17C62.68 19.36 61.95 19.44 61.31 19.44C59.41 19.44 57.98 19.17 57.22 18.69C56.45 18.2 55.79 17.76 55.4 17.28C55.4 16.76 55.6 15.89 56.04 14.94C56.48 13.94 57.03 12.94 57.66 12.03C58.29 11.11 59.03 10.26 59.73 9.6C60.46 8.94 61.11 8.58 61.72 8.58C64.11 8.58 66 9.1 67.52 10.24C69.06 11.41 69.82 12.75 69.82 14.44C69.82 15.41 69.48 16.21 68.86 16.84" fill="white"/>
</g>
</svg>
