<svg width="215" height="225" viewBox="0 0 215 225" fill="none" xmlns="http://www.w3.org/2000/svg">
<g clip-path="url(#clip0_4231_25)">
<path d="M118.52 224.43V161.34H16.86C7.55 161.34 0 153.84 0 144.53V16.79C0 7.49 7.56 0 16.86 0H193.94C205.1 0 214.11 9.01 214.11 20.12V135.73C214.11 202.13 156.95 218.31 118.52 224.42" fill="white"/>
<path d="M118.52 224.43V161.34H16.86C7.55 161.34 0 153.84 0 144.53V16.79C0 7.49 7.56 0 16.86 0H193.94C205.1 0 214.11 9.01 214.11 20.12V135.73C214.11 202.13 156.95 218.31 118.52 224.42" fill="#E53545"/>
<path d="M40.08 136.92C19.26 136.92 3.48999 122.35 3.48999 102.42C3.48999 82.49 19.26 67.94 40.08 67.94C60.9 67.94 76.66 82.48 76.66 102.42C76.66 122.36 60.84 136.92 40.08 136.92ZM40.08 116.1C47.27 116.1 52.51 110.76 52.51 102.41C52.51 94.06 47.27 88.6 40.08 88.6C32.89 88.6 27.6 94.08 27.6 102.41C27.6 110.74 32.87 116.1 40.08 116.1Z" fill="white"/>
<path d="M141.63 92.97V136.13H117.48V96.54C117.48 91.57 114.52 89.23 110.51 89.23C105.77 89.23 103.53 92.46 103.53 96.18V136.12H79.39V69.54H102.91V75.77C105.29 72.4 111.26 67.93 119.35 67.93C134.9 67.93 141.62 77.75 141.62 92.97" fill="white"/>
<path d="M210.43 108.81C210.54 107.56 210.64 105.79 210.64 104.41C210.64 81.36 199.18 67.85 177.45 67.85C157.25 67.85 144.39 82.86 144.39 101.57C144.39 120.28 157.72 136.98 180.32 137.03C197.47 137.06 207.33 126.53 209.46 121.48L190.15 113.35C188.02 115.59 184.63 117.05 180.8 117.05C174.72 117.05 169.77 113.43 169.17 108.81H210.41H210.43ZM169.83 94.09C170.07 91.58 172.23 86.99 177.96 86.99C183.33 86.99 185.82 91.08 186.08 94.09H169.84H169.83Z" fill="white"/>
<path d="M15.23 22.4H24.76C36.51 22.4 43.78 28.44 43.78 38.51C43.78 48.58 36.46 54.61 24.76 54.61H15.23V22.4ZM25.04 49C31.83 49 36.24 45.45 36.24 38.51C36.24 31.57 31.83 28.06 25.04 28.06H22.47V49H25.04Z" fill="white"/>
<path d="M58.91 42.52V22.4H66.13V42.52C66.13 46.62 68.73 49.19 73.36 49.19C77.99 49.19 80.58 46.62 80.58 42.52V22.4H87.81V42.52C87.81 50.11 82.64 55.22 73.37 55.22C64.1 55.22 58.93 50.12 58.93 42.52H58.91Z" fill="white"/>
<path d="M105.31 22.4H116.69C123.8 22.4 128.46 25.72 128.46 30.92C128.46 33.86 126.79 36.58 124.16 37.85C127.55 39.15 129.67 41.87 129.67 45.18C129.67 51.45 123.97 54.61 117.35 54.61H105.32V22.4H105.31ZM116.62 35.42C119.14 35.42 121.09 33.9 121.09 31.66C121.09 29.42 119.24 28.01 116.53 28.01H112.53V35.42H116.62ZM116.95 49.03C119.85 49.03 122.18 47.43 122.18 44.81C122.18 42.19 119.85 40.67 116.95 40.67H112.53V49.03H116.95Z" fill="white"/>
<path d="M152.25 46.33L149.13 54.61H141.85L154.54 22.4H162.14L174.85 54.61H167.57L164.44 46.33H152.25ZM158.34 29.34L154.18 40.94H162.56L158.35 29.34H158.34Z" fill="white"/>
<path d="M192.27 22.4H199.51V54.61H192.27V22.4Z" fill="white"/>
</g>
<defs>
<clipPath id="clip0_4231_25">
<rect width="214.11" height="224.43" fill="white"/>
</clipPath>
</defs>
</svg>
